M48
; DRILL file {KiCad (7.0.0-0)} date Sunday, June 11, 2023 at 02:21:35 PM
; FORMAT={-:-/ absolute / inch / decimal}
; #@! TF.CreationDate,2023-06-11T14:21:35-06:00
; #@! TF.GenerationSoftware,Kicad,Pcbnew,(7.0.0-0)
; #@! TF.FileFunction,Plated,1,4,PTH
FMAT,2
INCH
; #@! TA.AperFunction,Plated,PTH,ViaDrill
T1C0.0118
; #@! TA.AperFunction,Plated,PTH,ComponentDrill
T2C0.0138
; #@! TA.AperFunction,Plated,PTH,ComponentDrill
T3C0.0236
; #@! TA.AperFunction,Plated,PTH,ComponentDrill
T4C0.0295
; #@! TA.AperFunction,Plated,PTH,ComponentDrill
T5C0.0374
; #@! TA.AperFunction,Plated,PTH,ComponentDrill
T6C0.0394
; #@! TA.AperFunction,Plated,PTH,ComponentDrill
T7C0.0472
; #@! TA.AperFunction,Plated,PTH,ComponentDrill
T8C0.0906
; #@! TA.AperFunction,Plated,PTH,ComponentDrill
T9C0.1378
%
G90
G05
T1
X4.0984Y-3.3937
X4.1012Y-4.6366
X4.1339Y-3.937
X4.1339Y-4.5276
X4.3307Y-3.1496
X4.3307Y-3.5433
X4.3307Y-3.7402
X4.3307Y-3.937
X4.3307Y-4.5276
X4.3559Y-4.637
X4.3906Y-3.3539
X4.4843Y-4.4528
X4.5276Y-3.1496
X4.5276Y-3.3465
X4.5276Y-3.5433
X4.5276Y-3.7402
X4.5276Y-3.937
X4.5276Y-4.1339
X4.5512Y-4.5709
X4.6374Y-3.8677
X4.6794Y-4.4685
X4.7244Y-3.1496
X4.7244Y-3.7402
X4.7244Y-3.937
X4.7244Y-4.1339
X4.7589Y-3.3445
X4.7953Y-3.5197
X4.8228Y-4.2598
X4.8945Y-3.6299
X4.9213Y-3.1496
X4.9213Y-3.937
X4.9213Y-4.5276
X5.0276Y-3.4291
X5.0516Y-3.9465
X5.123Y-3.3593
X5.1496Y-4.126
X5.1496Y-4.5433
X5.1591Y-3.5689
X5.2067Y-3.4213
X5.2602Y-3.948
X5.3067Y-4.1339
X5.315Y-3.5433
X5.3256Y-4.3315
X5.3961Y-3.7106
X5.4291Y-4.4331
X5.437Y-4.2795
X5.4508Y-3.69
X5.464Y-4.3222
X5.4642Y-3.5421
X5.4685Y-3.374
X5.4807Y-3.9457
X5.4969Y-4.7453
X5.5264Y-3.7402
X5.5354Y-4.2835
X5.5394Y-4.4213
X5.5472Y-4.1339
X5.5856Y-3.373
X5.5945Y-3.4882
X5.663Y-3.7937
X5.6878Y-3.7606
X5.6984Y-4.1346
X5.6984Y-4.3307
X5.6996Y-3.9429
X5.7106Y-3.7272
X5.7244Y-4.4213
X5.7354Y-3.6957
X5.7378Y-3.4969
X5.8268Y-4.0787
X5.8701Y-4.1772
X5.9055Y-3.5433
X5.9498Y-3.3612
X5.9567Y-3.9882
X5.961Y-3.5677
X5.9614Y-3.6957
X6.0153Y-3.8893
X6.0224Y-3.5343
X6.0488Y-3.1801
X6.0902Y-3.7008
X6.1165Y-3.5319
X6.1228Y-4.3335
X6.1339Y-3.9409
X6.1339Y-3.9803
X6.1366Y-3.1496
X6.1594Y-4.7205
X6.1693Y-3.8307
X6.1732Y-3.3553
X6.2122Y-3.4941
X6.2323Y-3.1801
X6.2366Y-4.3953
X6.2547Y-4.0043
X6.2661Y-4.1433
X6.2665Y-4.198
X6.2854Y-3.3524
X6.2909Y-3.4516
X6.2913Y-4.6457
X6.2992Y-3.1496
X6.3102Y-4.1053
X6.3368Y-3.8297
X6.3386Y-4.7205
X6.3453Y-4.1063
X6.3654Y-3.4933
X6.3685Y-4.0197
X6.4331Y-4.5039
X6.4372Y-4.1321
X6.4464Y-4.2614
X6.4469Y-4.6398
X6.4626Y-4.4724
X6.4697Y-3.9242
X6.4697Y-4.1331
X6.4716Y-3.5268
X6.4961Y-3.1496
X6.4961Y-3.3632
X6.5071Y-3.6067
X6.5228Y-3.722
X6.5353Y-3.9541
X6.5382Y-3.9248
X6.5406Y-4.0406
X6.5492Y-4.0894
X6.5732Y-4.4074
X6.578Y-3.7612
X6.587Y-4.2441
X6.5992Y-3.8949
X6.6299Y-3.6102
X6.6368Y-3.3642
X6.674Y-4.5098
X6.6866Y-3.8945
X6.6929Y-3.1496
X6.6965Y-4.0937
X6.7106Y-3.5433
X6.7217Y-3.8051
X6.7362Y-4.2441
X6.7405Y-3.9917
X6.7406Y-4.3362
X6.7657Y-4.4547
X6.7677Y-3.7441
X6.7898Y-3.4807
X6.8071Y-4.4024
X6.8088Y-4.0787
X6.8228Y-3.7087
X6.8323Y-3.5209
X6.8661Y-3.4389
X6.8819Y-3.3573
X6.8857Y-3.7521
X6.8858Y-4.0945
X6.8937Y-3.9921
X6.8976Y-4.5157
X6.9157Y-4.5606
X6.9327Y-3.965
X6.9742Y-4.0916
X7.0Y-4.1332
X7.002Y-4.313
X7.0368Y-4.0954
X7.0433Y-3.9252
X7.0581Y-4.1811
X7.0748Y-3.3612
X7.0946Y-4.0349
X7.0968Y-4.293
X7.123Y-4.1654
X7.1575Y-3.5
X7.1654Y-4.0673
X7.1654Y-4.5079
X7.1807Y-3.7594
X7.189Y-4.4882
X7.1913Y-4.7846
X7.2038Y-4.183
X7.2115Y-4.2981
X7.2559Y-3.4961
X7.2677Y-3.9764
X7.2788Y-4.2497
X7.2795Y-3.5512
X7.2835Y-4.5118
X7.2835Y-4.7244
X7.3363Y-4.2557
X7.3489Y-4.1579
X7.3858Y-3.6449
X7.4228Y-4.8252
X7.4321Y-3.6614
X7.4343Y-3.7252
X7.4361Y-4.2431
X7.4495Y-3.5912
X7.4503Y-4.1782
X7.4764Y-4.5118
X7.4774Y-3.7706
X7.4882Y-3.5646
X7.497Y-3.685
X7.5037Y-3.6295
X7.5078Y-4.2224
X7.516Y-4.1223
X7.5227Y-3.8159
X7.5253Y-3.7267
X7.5551Y-3.6295
X7.5629Y-4.1672
X7.566Y-4.0437
X7.5666Y-3.768
X7.6084Y-4.1218
X7.6309Y-3.874
X7.6309Y-4.0433
X7.6317Y-3.9733
X7.6772Y-4.5276
X7.6787Y-3.5882
X7.6787Y-3.6718
X7.7264Y-3.5449
X7.7283Y-4.0472
X7.7323Y-4.2717
T2
X6.5884Y-3.9431
X6.5884Y-3.9933
X6.5884Y-4.0435
X6.6386Y-3.9431
X6.6386Y-3.9933
X6.6386Y-4.0435
X6.6888Y-3.9431
X6.6888Y-3.9933
X6.6888Y-4.0435
T4
X4.4488Y-4.1339
X4.4488Y-4.2126
X4.4488Y-4.2913
X4.4488Y-4.3701
X4.4528Y-3.582
X4.4528Y-3.6607
X4.4528Y-3.7395
X4.4528Y-3.8182
X5.5925Y-4.7205
X5.5925Y-4.7992
X5.7972Y-4.7205
X5.7972Y-4.7992
X6.002Y-4.563
X6.002Y-4.6417
X6.002Y-4.7205
X6.002Y-4.7992
X6.8209Y-4.6417
X6.8209Y-4.7205
X6.8209Y-4.7992
X7.0256Y-4.7205
X7.0256Y-4.7992
T5
X5.6496Y-3.8898
X5.6496Y-3.9882
X5.6496Y-4.0866
X5.6496Y-4.185
X5.6496Y-4.2835
X7.2992Y-4.1043
X7.2992Y-4.2028
X7.378Y-4.1043
X7.378Y-4.2028
T6
X4.1457Y-3.5433
X4.1457Y-3.6433
X4.1457Y-3.7433
X4.1457Y-3.8433
X4.1457Y-4.0984
X4.1457Y-4.1984
X4.1457Y-4.2984
X4.1457Y-4.3984
X4.5Y-4.7
X4.5Y-4.8
X4.6Y-4.7
X4.6Y-4.8
X4.7Y-4.7
X4.7Y-4.8
X4.8Y-4.7
X4.8Y-4.8
X4.9Y-4.7
X4.9Y-4.8
X5.0Y-4.7
X5.0Y-4.8
X5.1Y-4.7
X5.1Y-4.8
X5.2Y-4.7
X5.2Y-4.8
X5.3Y-4.7
X5.3Y-4.8
X5.4Y-4.7
X5.4Y-4.8
X6.2293Y-4.8258
X6.3293Y-4.8258
X6.4293Y-4.8258
X6.5293Y-4.8258
X6.6293Y-4.8258
X7.1575Y-4.0173
X7.1575Y-4.1173
X7.1575Y-4.2173
X7.1575Y-4.3173
X7.1575Y-4.4173
X7.378Y-3.3072
X7.3803Y-3.4528
X7.478Y-3.3072
X7.4803Y-3.4528
T7
X4.5482Y-3.2854
X4.686Y-3.2854
X4.8238Y-3.2854
X4.9616Y-3.2854
X5.0994Y-3.2854
X5.2549Y-3.2854
X5.3927Y-3.2854
X5.5305Y-3.2854
X5.6683Y-3.2854
X5.8061Y-3.2854
X5.9577Y-3.2854
X6.0955Y-3.2854
X6.2333Y-3.2854
X6.3711Y-3.2854
X6.5089Y-3.2854
X6.6614Y-3.2854
X6.7992Y-3.2854
X6.937Y-3.2854
X7.0748Y-3.2854
X7.2126Y-3.2854
T8
X7.4906Y-3.9173
X7.4906Y-4.3898
T9
X4.2275Y-3.2756
X4.2275Y-4.7425
X7.6975Y-3.2775
X7.6975Y-4.7425
T3
G00X7.6139Y-3.447
M15
G01X7.6572Y-3.447
M16
G05
G00X7.6139Y-3.7872
M15
G01X7.6572Y-3.7872
M16
G05
G00X7.7832Y-3.447
M15
G01X7.8147Y-3.447
M16
G05
G00X7.7832Y-3.7872
M15
G01X7.8147Y-3.7872
M16
G05
T0
M30
