%TF.GenerationSoftware,KiCad,Pcbnew,(6.0.4-0)*%
%TF.CreationDate,2023-01-11T12:36:20-07:00*%
%TF.ProjectId,ReflexFightingBoard,5265666c-6578-4466-9967-6874696e6742,rev?*%
%TF.SameCoordinates,Original*%
%TF.FileFunction,Paste,Top*%
%TF.FilePolarity,Positive*%
%FSLAX46Y46*%
G04 Gerber Fmt 4.6, Leading zero omitted, Abs format (unit mm)*
G04 Created by KiCad (PCBNEW (6.0.4-0)) date 2023-01-11 12:36:20*
%MOMM*%
%LPD*%
G01*
G04 APERTURE LIST*
G04 Aperture macros list*
%AMRoundRect*
0 Rectangle with rounded corners*
0 $1 Rounding radius*
0 $2 $3 $4 $5 $6 $7 $8 $9 X,Y pos of 4 corners*
0 Add a 4 corners polygon primitive as box body*
4,1,4,$2,$3,$4,$5,$6,$7,$8,$9,$2,$3,0*
0 Add four circle primitives for the rounded corners*
1,1,$1+$1,$2,$3*
1,1,$1+$1,$4,$5*
1,1,$1+$1,$6,$7*
1,1,$1+$1,$8,$9*
0 Add four rect primitives between the rounded corners*
20,1,$1+$1,$2,$3,$4,$5,0*
20,1,$1+$1,$4,$5,$6,$7,0*
20,1,$1+$1,$6,$7,$8,$9,0*
20,1,$1+$1,$8,$9,$2,$3,0*%
%AMRotRect*
0 Rectangle, with rotation*
0 The origin of the aperture is its center*
0 $1 length*
0 $2 width*
0 $3 Rotation angle, in degrees counterclockwise*
0 Add horizontal line*
21,1,$1,$2,0,0,$3*%
G04 Aperture macros list end*
%ADD10RoundRect,0.135000X-0.185000X0.135000X-0.185000X-0.135000X0.185000X-0.135000X0.185000X0.135000X0*%
%ADD11RoundRect,0.135000X0.135000X0.185000X-0.135000X0.185000X-0.135000X-0.185000X0.135000X-0.185000X0*%
%ADD12R,1.060000X0.650000*%
%ADD13RoundRect,0.140000X-0.140000X-0.170000X0.140000X-0.170000X0.140000X0.170000X-0.140000X0.170000X0*%
%ADD14R,3.000000X0.900000*%
%ADD15R,1.600000X0.400000*%
%ADD16RoundRect,0.140000X0.140000X0.170000X-0.140000X0.170000X-0.140000X-0.170000X0.140000X-0.170000X0*%
%ADD17O,0.200000X0.700000*%
%ADD18RoundRect,0.140000X-0.170000X0.140000X-0.170000X-0.140000X0.170000X-0.140000X0.170000X0.140000X0*%
%ADD19RoundRect,0.135000X0.185000X-0.135000X0.185000X0.135000X-0.185000X0.135000X-0.185000X-0.135000X0*%
%ADD20R,1.500000X2.000000*%
%ADD21R,3.800000X2.000000*%
%ADD22RotRect,1.610000X0.580000X45.000000*%
%ADD23RoundRect,0.250000X-0.292217X0.292217X-0.292217X-0.292217X0.292217X-0.292217X0.292217X0.292217X0*%
%ADD24RoundRect,0.050000X-0.050000X0.387500X-0.050000X-0.387500X0.050000X-0.387500X0.050000X0.387500X0*%
%ADD25RoundRect,0.050000X-0.387500X0.050000X-0.387500X-0.050000X0.387500X-0.050000X0.387500X0.050000X0*%
%ADD26RoundRect,0.140000X0.170000X-0.140000X0.170000X0.140000X-0.170000X0.140000X-0.170000X-0.140000X0*%
%ADD27RoundRect,0.135000X-0.135000X-0.185000X0.135000X-0.185000X0.135000X0.185000X-0.135000X0.185000X0*%
%ADD28R,1.150000X1.400000*%
%ADD29RoundRect,0.218750X0.256250X-0.218750X0.256250X0.218750X-0.256250X0.218750X-0.256250X-0.218750X0*%
%ADD30R,1.550000X1.300000*%
%ADD31RoundRect,0.140000X0.021213X-0.219203X0.219203X-0.021213X-0.021213X0.219203X-0.219203X0.021213X0*%
%ADD32RoundRect,0.147500X0.172500X-0.147500X0.172500X0.147500X-0.172500X0.147500X-0.172500X-0.147500X0*%
%ADD33R,1.100000X0.225000*%
%ADD34O,0.700000X0.200000*%
G04 APERTURE END LIST*
D10*
%TO.C,R3*%
X152208000Y-112510000D03*
X152208000Y-113530000D03*
%TD*%
%TO.C,R4*%
X154240000Y-112510000D03*
X154240000Y-113530000D03*
%TD*%
%TO.C,R1*%
X148144000Y-112510000D03*
X148144000Y-113530000D03*
%TD*%
%TO.C,R2*%
X150176000Y-112510000D03*
X150176000Y-113530000D03*
%TD*%
D11*
%TO.C,R5*%
X116810000Y-91000000D03*
X115790000Y-91000000D03*
%TD*%
D12*
%TO.C,U2*%
X120800000Y-91272400D03*
X120800000Y-90322400D03*
X120800000Y-89372400D03*
X118600000Y-89372400D03*
X118600000Y-91272400D03*
%TD*%
D13*
%TO.C,C1*%
X115820000Y-93000000D03*
X116780000Y-93000000D03*
%TD*%
D11*
%TO.C,R6*%
X121310000Y-109700000D03*
X120290000Y-109700000D03*
%TD*%
%TO.C,R7*%
X121310000Y-108500000D03*
X120290000Y-108500000D03*
%TD*%
D14*
%TO.C,J9*%
X118024000Y-105200000D03*
X118024000Y-110800000D03*
D15*
X116176000Y-109493000D03*
X116176000Y-108493000D03*
X116176000Y-107493000D03*
X116176000Y-106493000D03*
%TD*%
D14*
%TO.C,J13*%
X156224000Y-98800000D03*
X156224000Y-104400000D03*
D15*
X154376000Y-103093000D03*
X154376000Y-102093000D03*
X154376000Y-101093000D03*
X154376000Y-100093000D03*
%TD*%
D16*
%TO.C,C9*%
X163310000Y-102600000D03*
X162350000Y-102600000D03*
%TD*%
D17*
%TO.C,U9*%
X168900000Y-113600000D03*
X169400000Y-113600000D03*
X169900000Y-113600000D03*
X170400000Y-113600000D03*
X170900000Y-113600000D03*
X170900000Y-112550000D03*
X170400000Y-112550000D03*
X169900000Y-112550000D03*
X169400000Y-112550000D03*
X168900000Y-112550000D03*
%TD*%
D10*
%TO.C,R15*%
X173000000Y-95790000D03*
X173000000Y-96810000D03*
%TD*%
D13*
%TO.C,C8*%
X173720000Y-100700000D03*
X174680000Y-100700000D03*
%TD*%
D18*
%TO.C,C11*%
X167340000Y-107050000D03*
X167340000Y-108010000D03*
%TD*%
D11*
%TO.C,R18*%
X176710000Y-102110000D03*
X175690000Y-102110000D03*
%TD*%
D19*
%TO.C,R20*%
X168720000Y-107910000D03*
X168720000Y-106890000D03*
%TD*%
D17*
%TO.C,U7*%
X125300000Y-89095000D03*
X124800000Y-89095000D03*
X124300000Y-89095000D03*
X123800000Y-89095000D03*
X123300000Y-89095000D03*
X123300000Y-90145000D03*
X123800000Y-90145000D03*
X124300000Y-90145000D03*
X124800000Y-90145000D03*
X125300000Y-90145000D03*
%TD*%
D20*
%TO.C,U3*%
X172900000Y-113150000D03*
X175200000Y-113150000D03*
D21*
X175200000Y-106850000D03*
D20*
X177500000Y-113150000D03*
%TD*%
D22*
%TO.C,FLASH1*%
X177103842Y-96302082D03*
X178001867Y-97200107D03*
X178899893Y-98098133D03*
X179797918Y-98996158D03*
X184896158Y-93897918D03*
X183998133Y-92999893D03*
X183100107Y-92101867D03*
X182202082Y-91203842D03*
%TD*%
D23*
%TO.C,U4*%
X167982500Y-100792500D03*
X169257500Y-100792500D03*
X167982500Y-102067500D03*
X169257500Y-102067500D03*
D24*
X171220000Y-97992500D03*
X170820000Y-97992500D03*
X170420000Y-97992500D03*
X170020000Y-97992500D03*
X169620000Y-97992500D03*
X169220000Y-97992500D03*
X168820000Y-97992500D03*
X168420000Y-97992500D03*
X168020000Y-97992500D03*
X167620000Y-97992500D03*
X167220000Y-97992500D03*
X166820000Y-97992500D03*
X166420000Y-97992500D03*
X166020000Y-97992500D03*
D25*
X165182500Y-98830000D03*
X165182500Y-99230000D03*
X165182500Y-99630000D03*
X165182500Y-100030000D03*
X165182500Y-100430000D03*
X165182500Y-100830000D03*
X165182500Y-101230000D03*
X165182500Y-101630000D03*
X165182500Y-102030000D03*
X165182500Y-102430000D03*
X165182500Y-102830000D03*
X165182500Y-103230000D03*
X165182500Y-103630000D03*
X165182500Y-104030000D03*
D24*
X166020000Y-104867500D03*
X166420000Y-104867500D03*
X166820000Y-104867500D03*
X167220000Y-104867500D03*
X167620000Y-104867500D03*
X168020000Y-104867500D03*
X168420000Y-104867500D03*
X168820000Y-104867500D03*
X169220000Y-104867500D03*
X169620000Y-104867500D03*
X170020000Y-104867500D03*
X170420000Y-104867500D03*
X170820000Y-104867500D03*
X171220000Y-104867500D03*
D25*
X172057500Y-104030000D03*
X172057500Y-103630000D03*
X172057500Y-103230000D03*
X172057500Y-102830000D03*
X172057500Y-102430000D03*
X172057500Y-102030000D03*
X172057500Y-101630000D03*
X172057500Y-101230000D03*
X172057500Y-100830000D03*
X172057500Y-100430000D03*
X172057500Y-100030000D03*
X172057500Y-99630000D03*
X172057500Y-99230000D03*
X172057500Y-98830000D03*
%TD*%
D26*
%TO.C,R14*%
X174100000Y-96780000D03*
X174100000Y-95820000D03*
%TD*%
D27*
%TO.C,R21*%
X190900000Y-93000000D03*
X191920000Y-93000000D03*
%TD*%
D28*
%TO.C,Y1*%
X160650000Y-100650000D03*
X160650000Y-98450000D03*
X159050000Y-98450000D03*
X159050000Y-100650000D03*
%TD*%
D13*
%TO.C,C7*%
X176120000Y-105000000D03*
X177080000Y-105000000D03*
%TD*%
D17*
%TO.C,U1*%
X179000000Y-89375000D03*
X178500000Y-89375000D03*
X178000000Y-89375000D03*
X177500000Y-89375000D03*
X177000000Y-89375000D03*
X177000000Y-90425000D03*
X177500000Y-90425000D03*
X178000000Y-90425000D03*
X178500000Y-90425000D03*
X179000000Y-90425000D03*
%TD*%
D29*
%TO.C,D1*%
X179700000Y-115187500D03*
X179700000Y-113612500D03*
%TD*%
D11*
%TO.C,R19*%
X176710000Y-103110000D03*
X175690000Y-103110000D03*
%TD*%
D26*
%TO.C,C15*%
X167400000Y-96780000D03*
X167400000Y-95820000D03*
%TD*%
D17*
%TO.C,U6*%
X143100000Y-89375000D03*
X142600000Y-89375000D03*
X142100000Y-89375000D03*
X141600000Y-89375000D03*
X141100000Y-89375000D03*
X141100000Y-90425000D03*
X141600000Y-90425000D03*
X142100000Y-90425000D03*
X142600000Y-90425000D03*
X143100000Y-90425000D03*
%TD*%
D27*
%TO.C,R22*%
X191100000Y-89560000D03*
X192120000Y-89560000D03*
%TD*%
D26*
%TO.C,C14*%
X171900000Y-96780000D03*
X171900000Y-95820000D03*
%TD*%
D17*
%TO.C,U5*%
X162700000Y-89375000D03*
X162200000Y-89375000D03*
X161700000Y-89375000D03*
X161200000Y-89375000D03*
X160700000Y-89375000D03*
X160700000Y-90425000D03*
X161200000Y-90425000D03*
X161700000Y-90425000D03*
X162200000Y-90425000D03*
X162700000Y-90425000D03*
%TD*%
D13*
%TO.C,C12*%
X173460000Y-104535062D03*
X174420000Y-104535062D03*
%TD*%
%TO.C,C10*%
X173520000Y-103500000D03*
X174480000Y-103500000D03*
%TD*%
D30*
%TO.C,SW1*%
X181575000Y-118250000D03*
X189525000Y-118250000D03*
X189525000Y-120500000D03*
X189525000Y-122750000D03*
X181575000Y-122750000D03*
%TD*%
D31*
%TO.C,C5*%
X183260589Y-89939411D03*
X183939411Y-89260589D03*
%TD*%
D32*
%TO.C,D2*%
X168720000Y-109807500D03*
X168720000Y-108837500D03*
%TD*%
D18*
%TO.C,C6*%
X177500000Y-115220000D03*
X177500000Y-116180000D03*
%TD*%
D17*
%TO.C,U8*%
X167700000Y-112575000D03*
X167200000Y-112575000D03*
X166700000Y-112575000D03*
X166200000Y-112575000D03*
X165700000Y-112575000D03*
X165700000Y-113625000D03*
X166200000Y-113625000D03*
X166700000Y-113625000D03*
X167200000Y-113625000D03*
X167700000Y-113625000D03*
%TD*%
D16*
%TO.C,C4*%
X160330000Y-96900000D03*
X159370000Y-96900000D03*
%TD*%
D13*
%TO.C,C3*%
X159370000Y-102210000D03*
X160330000Y-102210000D03*
%TD*%
D11*
%TO.C,R16*%
X163430000Y-100650000D03*
X162410000Y-100650000D03*
%TD*%
D33*
%TO.C,J15*%
X193393337Y-95224000D03*
X193393337Y-94424000D03*
X193393337Y-93124000D03*
X193393337Y-92124000D03*
X193393337Y-91624000D03*
X193393337Y-93624000D03*
X193393337Y-89324000D03*
X193393337Y-88524000D03*
X193393337Y-88824000D03*
X193393337Y-89624000D03*
X193393337Y-90124000D03*
X193393337Y-91124000D03*
X193393337Y-92624000D03*
X193393337Y-90624000D03*
X193393337Y-94124000D03*
X193393337Y-94924000D03*
%TD*%
D34*
%TO.C,U10*%
X181875000Y-105200000D03*
X181875000Y-105700000D03*
X181875000Y-106200000D03*
X181875000Y-106700000D03*
X181875000Y-107200000D03*
X182925000Y-107200000D03*
X182925000Y-106700000D03*
X182925000Y-106200000D03*
X182925000Y-105700000D03*
X182925000Y-105200000D03*
%TD*%
D16*
%TO.C,C17*%
X163410000Y-101630000D03*
X162450000Y-101630000D03*
%TD*%
D13*
%TO.C,C13*%
X173420000Y-101700000D03*
X174380000Y-101700000D03*
%TD*%
D18*
%TO.C,C16*%
X171100000Y-106120000D03*
X171100000Y-107080000D03*
%TD*%
M02*
