%TF.GenerationSoftware,KiCad,Pcbnew,(7.0.0-0)*%
%TF.CreationDate,2023-08-14T10:15:54-06:00*%
%TF.ProjectId,ReflexFightingBoard,5265666c-6578-4466-9967-6874696e6742,rev?*%
%TF.SameCoordinates,Original*%
%TF.FileFunction,Soldermask,Bot*%
%TF.FilePolarity,Negative*%
%FSLAX46Y46*%
G04 Gerber Fmt 4.6, Leading zero omitted, Abs format (unit mm)*
G04 Created by KiCad (PCBNEW (7.0.0-0)) date 2023-08-14 10:15:54*
%MOMM*%
%LPD*%
G01*
G04 APERTURE LIST*
G04 Aperture macros list*
%AMRoundRect*
0 Rectangle with rounded corners*
0 $1 Rounding radius*
0 $2 $3 $4 $5 $6 $7 $8 $9 X,Y pos of 4 corners*
0 Add a 4 corners polygon primitive as box body*
4,1,4,$2,$3,$4,$5,$6,$7,$8,$9,$2,$3,0*
0 Add four circle primitives for the rounded corners*
1,1,$1+$1,$2,$3*
1,1,$1+$1,$4,$5*
1,1,$1+$1,$6,$7*
1,1,$1+$1,$8,$9*
0 Add four rect primitives between the rounded corners*
20,1,$1+$1,$2,$3,$4,$5,0*
20,1,$1+$1,$4,$5,$6,$7,0*
20,1,$1+$1,$6,$7,$8,$9,0*
20,1,$1+$1,$8,$9,$2,$3,0*%
G04 Aperture macros list end*
%ADD10R,1.700000X1.700000*%
%ADD11O,1.700000X1.700000*%
%ADD12RoundRect,0.249999X-0.625001X0.350001X-0.625001X-0.350001X0.625001X-0.350001X0.625001X0.350001X0*%
%ADD13O,1.750000X1.200000*%
%ADD14RoundRect,0.250000X0.625000X-0.350000X0.625000X0.350000X-0.625000X0.350000X-0.625000X-0.350000X0*%
%ADD15R,2.300000X2.300000*%
%ADD16C,2.300000*%
%ADD17C,7.000000*%
%ADD18C,1.300000*%
%ADD19O,2.610000X1.600000*%
%ADD20RoundRect,0.250000X-0.350000X-0.625000X0.350000X-0.625000X0.350000X0.625000X-0.350000X0.625000X0*%
%ADD21O,1.200000X1.750000*%
%ADD22R,1.600000X1.600000*%
%ADD23C,1.600000*%
%ADD24C,4.000000*%
%ADD25C,1.200000*%
%ADD26RoundRect,0.250000X-0.725000X0.600000X-0.725000X-0.600000X0.725000X-0.600000X0.725000X0.600000X0*%
%ADD27O,1.950000X1.700000*%
%ADD28C,0.650000*%
%ADD29O,2.100000X1.000000*%
%ADD30O,1.800000X1.000000*%
G04 APERTURE END LIST*
D10*
%TO.C,J2*%
X137159999Y-119379999D03*
D11*
X137159999Y-121919999D03*
X134619999Y-119379999D03*
X134619999Y-121919999D03*
X132079999Y-119379999D03*
X132079999Y-121919999D03*
X129539999Y-119379999D03*
X129539999Y-121919999D03*
X126999999Y-119379999D03*
X126999999Y-121919999D03*
X124459999Y-119379999D03*
X124459999Y-121919999D03*
X121919999Y-119379999D03*
X121919999Y-121919999D03*
X119379999Y-119379999D03*
X119379999Y-121919999D03*
X116839999Y-119379999D03*
X116839999Y-121919999D03*
X114299999Y-119379999D03*
X114299999Y-121919999D03*
%TD*%
D12*
%TO.C,J1*%
X113100000Y-90982800D03*
D13*
X113099999Y-92982799D03*
X113099999Y-94982799D03*
X113099999Y-96982799D03*
%TD*%
D14*
%TO.C,J3*%
X178225000Y-121850000D03*
D13*
X178224999Y-119849999D03*
%TD*%
D15*
%TO.C,J5*%
X165324999Y-83449999D03*
D16*
X161825000Y-83450000D03*
X158325000Y-83450000D03*
X154825000Y-83450000D03*
X151325000Y-83450000D03*
%TD*%
D15*
%TO.C,J6*%
X147474999Y-83449999D03*
D16*
X143975000Y-83450000D03*
X140475000Y-83450000D03*
X136975000Y-83450000D03*
X133475000Y-83450000D03*
%TD*%
D15*
%TO.C,J7*%
X129524999Y-83449999D03*
D16*
X126025000Y-83450000D03*
X122525000Y-83450000D03*
X119025000Y-83450000D03*
X115525000Y-83450000D03*
%TD*%
D15*
%TO.C,J8*%
X183199999Y-83449999D03*
D16*
X179700000Y-83450000D03*
X176200000Y-83450000D03*
X172700000Y-83450000D03*
X169200000Y-83450000D03*
%TD*%
D17*
%TO.C,H1*%
X107378000Y-83200000D03*
%TD*%
%TO.C,H3*%
X107378000Y-120460000D03*
%TD*%
%TO.C,H4*%
X195517000Y-120460000D03*
%TD*%
%TO.C,H2*%
X195517000Y-83248000D03*
%TD*%
D10*
%TO.C,J20*%
X187399999Y-84001951D03*
D11*
X189939999Y-84001951D03*
%TD*%
D18*
%TO.C,J9*%
X111212500Y-105150000D03*
X111212500Y-110150000D03*
D19*
X106702499Y-101249999D03*
X106702499Y-114049999D03*
%TD*%
D20*
%TO.C,J21*%
X145925000Y-120550000D03*
D21*
X147924999Y-120549999D03*
X149924999Y-120549999D03*
X151924999Y-120549999D03*
%TD*%
D14*
%TO.C,J11*%
X172575000Y-121875000D03*
D13*
X172574999Y-119874999D03*
X172574999Y-117874999D03*
%TD*%
D10*
%TO.C,J14*%
X189999999Y-87699999D03*
D11*
X187459999Y-87699999D03*
%TD*%
D22*
%TO.C,J16*%
X185399999Y-104249999D03*
D23*
X185400000Y-106750000D03*
X187400000Y-106750000D03*
X187400000Y-104250000D03*
D24*
X190260000Y-99500000D03*
X190260000Y-111500000D03*
%TD*%
D10*
%TO.C,J19*%
X105299999Y-89999999D03*
D11*
X105299999Y-92539999D03*
X105299999Y-95079999D03*
X105299999Y-97619999D03*
%TD*%
D10*
%TO.C,J22*%
X158224999Y-122574999D03*
D11*
X160764999Y-122574999D03*
X163304999Y-122574999D03*
X165844999Y-122574999D03*
X168384999Y-122574999D03*
%TD*%
D10*
%TO.C,J10*%
X155799999Y-100074999D03*
D11*
X155799999Y-102614999D03*
X155799999Y-105154999D03*
X155799999Y-107694999D03*
%TD*%
D25*
%TO.C,J17*%
X139350000Y-97950000D03*
D26*
X141350000Y-99550000D03*
D27*
X141349999Y-102049999D03*
X141349999Y-104549999D03*
X141349999Y-107049999D03*
X141349999Y-109549999D03*
%TD*%
D28*
%TO.C,J15*%
X194443337Y-94764000D03*
X194493337Y-88984000D03*
D29*
X193943336Y-96193999D03*
D30*
X198093336Y-96193999D03*
D29*
X193943336Y-87553999D03*
D30*
X198093336Y-87553999D03*
%TD*%
D10*
%TO.C,J24*%
X181799999Y-112199999D03*
D11*
X181799999Y-109659999D03*
X181799999Y-107119999D03*
X181799999Y-104579999D03*
X181799999Y-102039999D03*
%TD*%
M02*
