M48
; DRILL file {KiCad (7.0.0-0)} date Monday, August 14, 2023 at 10:15:54 AM
; FORMAT={-:-/ absolute / inch / decimal}
; #@! TF.CreationDate,2023-08-14T10:15:54-06:00
; #@! TF.GenerationSoftware,Kicad,Pcbnew,(7.0.0-0)
; #@! TF.FileFunction,Plated,1,4,PTH
FMAT,2
INCH
; #@! TA.AperFunction,Plated,PTH,ViaDrill
T1C0.0118
; #@! TA.AperFunction,Plated,PTH,ComponentDrill
T2C0.0138
; #@! TA.AperFunction,Plated,PTH,ComponentDrill
T3C0.0236
; #@! TA.AperFunction,Plated,PTH,ComponentDrill
T4C0.0295
; #@! TA.AperFunction,Plated,PTH,ComponentDrill
T5C0.0374
; #@! TA.AperFunction,Plated,PTH,ComponentDrill
T6C0.0394
; #@! TA.AperFunction,Plated,PTH,ComponentDrill
T7C0.0472
; #@! TA.AperFunction,Plated,PTH,ComponentDrill
T8C0.0906
; #@! TA.AperFunction,Plated,PTH,ComponentDrill
T9C0.1378
%
G90
G05
T1
X4.0984Y-3.3937
X4.1012Y-4.6366
X4.1329Y-3.9331
X4.1339Y-4.5531
X4.1545Y-4.3386
X4.1594Y-4.1053
X4.2584Y-4.2362
X4.3307Y-3.1496
X4.3307Y-3.5433
X4.3307Y-3.7402
X4.3307Y-3.937
X4.3317Y-4.5512
X4.3559Y-4.637
X4.3906Y-3.3539
X4.4843Y-4.4528
X4.5276Y-3.1496
X4.5276Y-3.3465
X4.5276Y-3.5433
X4.5276Y-3.7402
X4.5276Y-3.937
X4.563Y-4.0226
X4.5699Y-4.376
X4.5818Y-4.1438
X4.6063Y-3.7667
X4.6249Y-4.1869
X4.6374Y-3.8677
X4.6418Y-4.0838
X4.6437Y-4.3031
X4.6794Y-4.4685
X4.722Y-4.0035
X4.7234Y-4.4301
X4.7244Y-3.1496
X4.7244Y-3.7402
X4.7278Y-4.084
X4.7589Y-3.3445
X4.7722Y-3.9533
X4.776Y-4.0358
X4.7953Y-3.5197
X4.8239Y-3.9017
X4.8277Y-3.9842
X4.8716Y-3.8539
X4.8744Y-3.9374
X4.8945Y-3.6299
X4.9213Y-3.1496
X4.9213Y-4.5276
X4.929Y-3.8828
X4.9317Y-3.7939
X5.0108Y-3.8297
X5.0276Y-3.4291
X5.0516Y-3.9465
X5.0659Y-3.7687
X5.123Y-3.3593
X5.1496Y-4.0246
X5.1496Y-4.5433
X5.1565Y-3.8297
X5.1591Y-3.5689
X5.2067Y-3.4213
X5.2126Y-3.7687
X5.251Y-3.8297
X5.2982Y-3.7687
X5.315Y-3.5433
X5.3287Y-3.8297
X5.3294Y-4.2994
X5.376Y-3.7687
X5.4006Y-3.8297
X5.4183Y-3.7096
X5.4291Y-4.4331
X5.437Y-4.2795
X5.4508Y-3.69
X5.464Y-4.3222
X5.4642Y-3.5421
X5.4685Y-3.374
X5.4734Y-3.7313
X5.4921Y-4.1378
X5.4961Y-4.2835
X5.4969Y-4.7453
X5.5108Y-3.7687
X5.5394Y-4.4213
X5.5404Y-4.5886
X5.5443Y-3.8297
X5.5856Y-3.373
X5.5866Y-4.5148
X5.5945Y-3.4882
X5.6014Y-3.7687
X5.6024Y-4.6831
X5.6526Y-3.8297
X5.6791Y-3.7687
X5.6984Y-4.1346
X5.6984Y-4.3307
X5.6996Y-3.9429
X5.7156Y-3.75
X5.7244Y-4.4213
X5.7378Y-3.4969
X5.7448Y-3.7208
X5.7451Y-3.751
X5.7745Y-3.7213
X5.8091Y-3.562
X5.815Y-4.5108
X5.8209Y-3.7687
X5.8209Y-3.8297
X5.8268Y-4.0787
X5.8701Y-4.1772
X5.878Y-4.2559
X5.8947Y-4.5404
X5.9055Y-3.5433
X5.9075Y-3.7687
X5.936Y-4.1132
X5.9498Y-3.3612
X5.9557Y-3.8297
X5.9567Y-3.9882
X5.9614Y-3.5681
X5.9614Y-3.686
X5.9705Y-4.3179
X5.9941Y-4.5187
X5.999Y-3.7687
X6.0153Y-3.8893
X6.0224Y-3.5343
X6.0394Y-3.8297
X6.0488Y-3.1801
X6.0876Y-3.7687
X6.0902Y-3.7008
X6.1112Y-4.5
X6.1165Y-3.5319
X6.1228Y-4.3335
X6.1289Y-4.8327
X6.1366Y-3.1496
X6.1594Y-4.7205
X6.1693Y-3.8307
X6.1732Y-3.3553
X6.2077Y-3.8937
X6.2122Y-3.4941
X6.2224Y-3.7687
X6.2323Y-3.1801
X6.2366Y-4.3953
X6.2539Y-4.198
X6.2559Y-4.1433
X6.2579Y-3.8297
X6.2677Y-4.0531
X6.2854Y-3.3524
X6.2909Y-3.4516
X6.2913Y-4.6457
X6.2976Y-3.7687
X6.2992Y-3.1496
X6.3386Y-4.7205
X6.3426Y-3.8454
X6.3654Y-3.4933
X6.3685Y-4.0197
X6.3838Y-3.8003
X6.4086Y-3.9113
X6.4315Y-3.848
X6.4331Y-4.5039
X6.4372Y-4.1321
X6.4464Y-4.2614
X6.4469Y-4.6398
X6.4626Y-4.4724
X6.4697Y-4.1331
X6.4716Y-3.5268
X6.4961Y-3.1496
X6.4961Y-3.3632
X6.5071Y-3.6067
X6.5353Y-3.9541
X6.5406Y-4.0406
X6.5492Y-4.0894
X6.5732Y-4.4074
X6.578Y-3.7612
X6.5787Y-4.5463
X6.5787Y-4.6594
X6.587Y-4.2441
X6.5992Y-3.8949
X6.6299Y-3.6102
X6.6368Y-3.3642
X6.674Y-4.5098
X6.6866Y-3.8945
X6.6929Y-3.1496
X6.6965Y-4.0937
X6.7106Y-3.5433
X6.7217Y-3.8051
X6.7362Y-4.2441
X6.7405Y-3.9917
X6.7406Y-4.3362
X6.7657Y-4.4547
X6.7677Y-3.7441
X6.7898Y-3.4807
X6.8071Y-4.4024
X6.8088Y-4.0787
X6.8219Y-4.311
X6.8228Y-3.7087
X6.8323Y-3.5209
X6.8632Y-3.1663
X6.8661Y-3.4389
X6.8819Y-3.3573
X6.8857Y-3.7521
X6.8858Y-4.0945
X6.8937Y-3.9921
X6.8976Y-4.5157
X6.9157Y-4.5606
X6.9327Y-3.965
X6.9547Y-3.5659
X6.9742Y-4.0916
X6.9921Y-3.1673
X7.0Y-4.1332
X7.002Y-4.313
X7.0368Y-4.0954
X7.0433Y-3.9252
X7.0581Y-4.1811
X7.0728Y-3.7717
X7.0748Y-3.3612
X7.0807Y-4.5551
X7.0946Y-4.0349
X7.0968Y-4.293
X7.123Y-4.1654
X7.1319Y-3.1634
X7.1398Y-4.5787
X7.1575Y-3.5
X7.1654Y-4.0673
X7.1807Y-3.7594
X7.189Y-4.4882
X7.1913Y-4.7846
X7.2038Y-4.183
X7.2115Y-4.2981
X7.2116Y-3.4055
X7.2411Y-3.1683
X7.2559Y-3.4961
X7.2677Y-3.9764
X7.2788Y-4.2497
X7.2795Y-3.5512
X7.2835Y-4.5118
X7.2835Y-4.7244
X7.3199Y-4.437
X7.3356Y-4.3199
X7.3363Y-4.2557
X7.3489Y-4.1579
X7.3583Y-3.8642
X7.3858Y-3.6449
X7.4228Y-4.8252
X7.4321Y-3.6614
X7.4343Y-3.7252
X7.4361Y-4.2431
X7.4495Y-3.5912
X7.4503Y-4.1782
X7.4764Y-4.5118
X7.4774Y-3.7706
X7.4882Y-3.5646
X7.497Y-3.685
X7.5037Y-3.6295
X7.5078Y-4.2224
X7.516Y-4.1223
X7.5227Y-3.8159
X7.5253Y-3.7267
X7.5335Y-3.1594
X7.5551Y-3.6295
X7.5629Y-4.1672
X7.5659Y-3.4104
X7.566Y-4.0437
X7.5666Y-3.768
X7.6084Y-4.1218
X7.6309Y-3.874
X7.6309Y-4.0433
X7.6317Y-3.9733
X7.6772Y-4.5276
X7.6787Y-3.5882
X7.6787Y-3.6718
X7.7264Y-3.5449
X7.7283Y-4.0472
X7.7323Y-4.2717
X7.7323Y-4.4311
X7.7963Y-3.875
X7.8041Y-4.5502
T2
X6.5884Y-3.9431
X6.5884Y-3.9933
X6.5884Y-4.0435
X6.6386Y-3.9431
X6.6386Y-3.9933
X6.6386Y-4.0435
X6.6888Y-3.9431
X6.6888Y-3.9933
X6.6888Y-4.0435
T4
X4.4528Y-3.582
X4.4528Y-3.6607
X4.4528Y-3.7395
X4.4528Y-3.8182
X5.7451Y-4.7461
X5.8238Y-4.7461
X5.9026Y-4.7461
X5.9813Y-4.7461
X6.7943Y-4.6407
X6.7943Y-4.7195
X6.7943Y-4.7982
X7.0167Y-4.7185
X7.0167Y-4.7972
T5
X5.565Y-3.9193
X5.565Y-4.0177
X5.565Y-4.1161
X5.565Y-4.2146
X5.565Y-4.313
X7.2992Y-4.1043
X7.2992Y-4.2028
X7.378Y-4.1043
X7.378Y-4.2028
T6
X4.1457Y-3.5433
X4.1457Y-3.6433
X4.1457Y-3.7433
X4.1457Y-3.8433
X4.5Y-4.7
X4.5Y-4.8
X4.6Y-4.7
X4.6Y-4.8
X4.7Y-4.7
X4.7Y-4.8
X4.8Y-4.7
X4.8Y-4.8
X4.9Y-4.7
X4.9Y-4.8
X5.0Y-4.7
X5.0Y-4.8
X5.1Y-4.7
X5.1Y-4.8
X5.2Y-4.7
X5.2Y-4.8
X5.3Y-4.7
X5.3Y-4.8
X5.4Y-4.7
X5.4Y-4.8
X6.1339Y-3.94
X6.1339Y-4.04
X6.1339Y-4.14
X6.1339Y-4.24
X6.2293Y-4.8258
X6.3293Y-4.8258
X6.4293Y-4.8258
X6.5293Y-4.8258
X6.6293Y-4.8258
X7.1575Y-4.0173
X7.1575Y-4.1173
X7.1575Y-4.2173
X7.1575Y-4.3173
X7.1575Y-4.4173
X7.378Y-3.3072
X7.3803Y-3.4528
X7.478Y-3.3072
X7.4803Y-3.4528
T7
X4.5482Y-3.2854
X4.686Y-3.2854
X4.8238Y-3.2854
X4.9616Y-3.2854
X5.0994Y-3.2854
X5.2549Y-3.2854
X5.3927Y-3.2854
X5.5305Y-3.2854
X5.6683Y-3.2854
X5.8061Y-3.2854
X5.9577Y-3.2854
X6.0955Y-3.2854
X6.2333Y-3.2854
X6.3711Y-3.2854
X6.5089Y-3.2854
X6.6614Y-3.2854
X6.7992Y-3.2854
X6.937Y-3.2854
X7.0748Y-3.2854
X7.2126Y-3.2854
T8
X7.4906Y-3.9173
X7.4906Y-4.3898
T9
X4.2275Y-3.2756
X4.2275Y-4.7425
X7.6975Y-3.2775
X7.6975Y-4.7425
T3
G00X4.2208Y-3.9862
M15
G01X4.181Y-3.9862
M16
G05
G00X4.2208Y-4.4902
M15
G01X4.181Y-4.4902
M16
G05
G00X7.6139Y-3.447
M15
G01X7.6572Y-3.447
M16
G05
G00X7.6139Y-3.7872
M15
G01X7.6572Y-3.7872
M16
G05
G00X7.7832Y-3.447
M15
G01X7.8147Y-3.447
M16
G05
G00X7.7832Y-3.7872
M15
G01X7.8147Y-3.7872
M16
G05
T0
M30
