%TF.GenerationSoftware,KiCad,Pcbnew,(7.0.0-0)*%
%TF.CreationDate,2023-05-07T02:23:39-06:00*%
%TF.ProjectId,ReflexFightingBoard,5265666c-6578-4466-9967-6874696e6742,rev?*%
%TF.SameCoordinates,Original*%
%TF.FileFunction,Soldermask,Top*%
%TF.FilePolarity,Negative*%
%FSLAX46Y46*%
G04 Gerber Fmt 4.6, Leading zero omitted, Abs format (unit mm)*
G04 Created by KiCad (PCBNEW (7.0.0-0)) date 2023-05-07 02:23:39*
%MOMM*%
%LPD*%
G01*
G04 APERTURE LIST*
G04 Aperture macros list*
%AMRoundRect*
0 Rectangle with rounded corners*
0 $1 Rounding radius*
0 $2 $3 $4 $5 $6 $7 $8 $9 X,Y pos of 4 corners*
0 Add a 4 corners polygon primitive as box body*
4,1,4,$2,$3,$4,$5,$6,$7,$8,$9,$2,$3,0*
0 Add four circle primitives for the rounded corners*
1,1,$1+$1,$2,$3*
1,1,$1+$1,$4,$5*
1,1,$1+$1,$6,$7*
1,1,$1+$1,$8,$9*
0 Add four rect primitives between the rounded corners*
20,1,$1+$1,$2,$3,$4,$5,0*
20,1,$1+$1,$4,$5,$6,$7,0*
20,1,$1+$1,$6,$7,$8,$9,0*
20,1,$1+$1,$8,$9,$2,$3,0*%
%AMRotRect*
0 Rectangle, with rotation*
0 The origin of the aperture is its center*
0 $1 length*
0 $2 width*
0 $3 Rotation angle, in degrees counterclockwise*
0 Add horizontal line*
21,1,$1,$2,0,0,$3*%
G04 Aperture macros list end*
%ADD10C,0.010000*%
%ADD11RoundRect,0.135000X0.135000X0.185000X-0.135000X0.185000X-0.135000X-0.185000X0.135000X-0.185000X0*%
%ADD12R,1.060000X0.650000*%
%ADD13RoundRect,0.140000X-0.140000X-0.170000X0.140000X-0.170000X0.140000X0.170000X-0.140000X0.170000X0*%
%ADD14R,1.700000X1.700000*%
%ADD15O,1.700000X1.700000*%
%ADD16RoundRect,0.249999X-0.625001X0.350001X-0.625001X-0.350001X0.625001X-0.350001X0.625001X0.350001X0*%
%ADD17O,1.750000X1.200000*%
%ADD18RoundRect,0.250000X0.625000X-0.350000X0.625000X0.350000X-0.625000X0.350000X-0.625000X-0.350000X0*%
%ADD19R,2.300000X2.300000*%
%ADD20C,2.300000*%
%ADD21C,7.000000*%
%ADD22R,3.000000X0.900000*%
%ADD23R,1.600000X0.400000*%
%ADD24RoundRect,0.140000X0.140000X0.170000X-0.140000X0.170000X-0.140000X-0.170000X0.140000X-0.170000X0*%
%ADD25O,0.200000X0.700000*%
%ADD26RoundRect,0.135000X-0.185000X0.135000X-0.185000X-0.135000X0.185000X-0.135000X0.185000X0.135000X0*%
%ADD27RoundRect,0.135000X0.185000X-0.135000X0.185000X0.135000X-0.185000X0.135000X-0.185000X-0.135000X0*%
%ADD28RoundRect,0.140000X-0.170000X0.140000X-0.170000X-0.140000X0.170000X-0.140000X0.170000X0.140000X0*%
%ADD29RoundRect,0.135000X-0.135000X-0.185000X0.135000X-0.185000X0.135000X0.185000X-0.135000X0.185000X0*%
%ADD30R,1.600000X1.600000*%
%ADD31C,1.600000*%
%ADD32C,4.000000*%
%ADD33RoundRect,0.147500X-0.147500X-0.172500X0.147500X-0.172500X0.147500X0.172500X-0.147500X0.172500X0*%
%ADD34R,1.500000X2.000000*%
%ADD35R,3.800000X2.000000*%
%ADD36RotRect,1.610000X0.580000X45.000000*%
%ADD37RoundRect,0.150000X0.587500X0.150000X-0.587500X0.150000X-0.587500X-0.150000X0.587500X-0.150000X0*%
%ADD38RoundRect,0.050000X-0.050000X0.387500X-0.050000X-0.387500X0.050000X-0.387500X0.050000X0.387500X0*%
%ADD39RoundRect,0.050000X-0.387500X0.050000X-0.387500X-0.050000X0.387500X-0.050000X0.387500X0.050000X0*%
%ADD40RoundRect,0.144000X-1.456000X1.456000X-1.456000X-1.456000X1.456000X-1.456000X1.456000X1.456000X0*%
%ADD41RoundRect,0.140000X0.170000X-0.140000X0.170000X0.140000X-0.170000X0.140000X-0.170000X-0.140000X0*%
%ADD42R,1.150000X1.400000*%
%ADD43RoundRect,0.218750X-0.218750X-0.256250X0.218750X-0.256250X0.218750X0.256250X-0.218750X0.256250X0*%
%ADD44C,1.200000*%
%ADD45RoundRect,0.250000X-0.725000X0.600000X-0.725000X-0.600000X0.725000X-0.600000X0.725000X0.600000X0*%
%ADD46O,1.950000X1.700000*%
%ADD47RoundRect,0.218750X-0.256250X0.218750X-0.256250X-0.218750X0.256250X-0.218750X0.256250X0.218750X0*%
%ADD48R,1.550000X1.300000*%
%ADD49RoundRect,0.140000X0.021213X-0.219203X0.219203X-0.021213X-0.021213X0.219203X-0.219203X0.021213X0*%
%ADD50C,0.650000*%
%ADD51R,1.100000X0.225000*%
%ADD52O,2.100000X1.000000*%
%ADD53O,1.800000X1.000000*%
%ADD54O,0.700000X0.200000*%
G04 APERTURE END LIST*
%TO.C,Ref\u002A\u002A*%
G36*
X123678843Y-110649981D02*
G01*
X123715071Y-110678304D01*
X123734134Y-110704893D01*
X123772935Y-110763922D01*
X123829185Y-110851684D01*
X123900593Y-110964468D01*
X123984869Y-111098566D01*
X124079724Y-111250267D01*
X124182868Y-111415863D01*
X124292010Y-111591644D01*
X124404862Y-111773900D01*
X124519132Y-111958923D01*
X124632531Y-112143003D01*
X124742770Y-112322431D01*
X124847557Y-112493497D01*
X124944604Y-112652492D01*
X125031620Y-112795707D01*
X125106316Y-112919432D01*
X125166401Y-113019958D01*
X125209585Y-113093575D01*
X125233579Y-113136575D01*
X125236950Y-113143541D01*
X125259894Y-113204940D01*
X125261763Y-113244835D01*
X125241180Y-113279193D01*
X125223648Y-113297679D01*
X125214832Y-113305634D01*
X125203467Y-113312523D01*
X125186640Y-113318421D01*
X125161437Y-113323404D01*
X125124944Y-113327546D01*
X125074249Y-113330924D01*
X125006436Y-113333612D01*
X124918594Y-113335686D01*
X124807808Y-113337221D01*
X124671165Y-113338292D01*
X124505751Y-113338974D01*
X124308652Y-113339343D01*
X124076956Y-113339474D01*
X123807749Y-113339442D01*
X123609690Y-113339369D01*
X123273423Y-113338936D01*
X122975231Y-113337933D01*
X122715668Y-113336367D01*
X122495286Y-113334246D01*
X122314640Y-113331579D01*
X122174284Y-113328371D01*
X122074771Y-113324632D01*
X122016655Y-113320369D01*
X122001023Y-113317150D01*
X121971222Y-113275628D01*
X121963982Y-113219561D01*
X121967195Y-113198915D01*
X121977800Y-113168398D01*
X121997246Y-113125506D01*
X122026979Y-113067738D01*
X122068449Y-112992591D01*
X122123103Y-112897563D01*
X122192389Y-112780152D01*
X122277755Y-112637854D01*
X122380648Y-112468168D01*
X122502518Y-112268591D01*
X122644812Y-112036622D01*
X122707444Y-111934738D01*
X122834869Y-111727892D01*
X122956676Y-111530815D01*
X123070916Y-111346616D01*
X123175643Y-111178407D01*
X123268909Y-111029297D01*
X123348765Y-110902396D01*
X123413264Y-110800815D01*
X123460458Y-110727664D01*
X123488399Y-110686053D01*
X123494301Y-110678304D01*
X123558140Y-110637839D01*
X123604398Y-110630679D01*
X123678843Y-110649981D01*
G37*
D10*
X123678843Y-110649981D02*
X123715071Y-110678304D01*
X123734134Y-110704893D01*
X123772935Y-110763922D01*
X123829185Y-110851684D01*
X123900593Y-110964468D01*
X123984869Y-111098566D01*
X124079724Y-111250267D01*
X124182868Y-111415863D01*
X124292010Y-111591644D01*
X124404862Y-111773900D01*
X124519132Y-111958923D01*
X124632531Y-112143003D01*
X124742770Y-112322431D01*
X124847557Y-112493497D01*
X124944604Y-112652492D01*
X125031620Y-112795707D01*
X125106316Y-112919432D01*
X125166401Y-113019958D01*
X125209585Y-113093575D01*
X125233579Y-113136575D01*
X125236950Y-113143541D01*
X125259894Y-113204940D01*
X125261763Y-113244835D01*
X125241180Y-113279193D01*
X125223648Y-113297679D01*
X125214832Y-113305634D01*
X125203467Y-113312523D01*
X125186640Y-113318421D01*
X125161437Y-113323404D01*
X125124944Y-113327546D01*
X125074249Y-113330924D01*
X125006436Y-113333612D01*
X124918594Y-113335686D01*
X124807808Y-113337221D01*
X124671165Y-113338292D01*
X124505751Y-113338974D01*
X124308652Y-113339343D01*
X124076956Y-113339474D01*
X123807749Y-113339442D01*
X123609690Y-113339369D01*
X123273423Y-113338936D01*
X122975231Y-113337933D01*
X122715668Y-113336367D01*
X122495286Y-113334246D01*
X122314640Y-113331579D01*
X122174284Y-113328371D01*
X122074771Y-113324632D01*
X122016655Y-113320369D01*
X122001023Y-113317150D01*
X121971222Y-113275628D01*
X121963982Y-113219561D01*
X121967195Y-113198915D01*
X121977800Y-113168398D01*
X121997246Y-113125506D01*
X122026979Y-113067738D01*
X122068449Y-112992591D01*
X122123103Y-112897563D01*
X122192389Y-112780152D01*
X122277755Y-112637854D01*
X122380648Y-112468168D01*
X122502518Y-112268591D01*
X122644812Y-112036622D01*
X122707444Y-111934738D01*
X122834869Y-111727892D01*
X122956676Y-111530815D01*
X123070916Y-111346616D01*
X123175643Y-111178407D01*
X123268909Y-111029297D01*
X123348765Y-110902396D01*
X123413264Y-110800815D01*
X123460458Y-110727664D01*
X123488399Y-110686053D01*
X123494301Y-110678304D01*
X123558140Y-110637839D01*
X123604398Y-110630679D01*
X123678843Y-110649981D01*
G36*
X131246627Y-110651682D02*
G01*
X131271199Y-110671683D01*
X131289240Y-110697091D01*
X131327240Y-110755117D01*
X131383020Y-110842296D01*
X131454402Y-110955163D01*
X131539206Y-111090252D01*
X131635254Y-111244098D01*
X131740367Y-111413237D01*
X131852366Y-111594201D01*
X131912315Y-111691357D01*
X132076357Y-111957553D01*
X132219543Y-112190094D01*
X132343277Y-112391334D01*
X132448964Y-112563625D01*
X132538009Y-112709322D01*
X132611817Y-112830776D01*
X132671792Y-112930342D01*
X132719339Y-113010373D01*
X132755863Y-113073222D01*
X132782768Y-113121241D01*
X132801459Y-113156785D01*
X132813341Y-113182206D01*
X132819818Y-113199858D01*
X132822296Y-113212093D01*
X132822482Y-113216090D01*
X132808219Y-113259675D01*
X132780148Y-113297679D01*
X132771336Y-113305625D01*
X132759965Y-113312510D01*
X132743126Y-113318408D01*
X132717909Y-113323397D01*
X132681403Y-113327552D01*
X132630699Y-113330950D01*
X132562887Y-113333667D01*
X132475057Y-113335778D01*
X132364300Y-113337361D01*
X132227705Y-113338490D01*
X132062363Y-113339243D01*
X131865364Y-113339696D01*
X131633797Y-113339924D01*
X131364754Y-113340004D01*
X131162410Y-113340013D01*
X130863964Y-113339940D01*
X130605023Y-113339685D01*
X130382759Y-113339188D01*
X130194344Y-113338391D01*
X130036950Y-113337236D01*
X129907748Y-113335663D01*
X129803911Y-113333615D01*
X129722611Y-113331033D01*
X129661019Y-113327858D01*
X129616308Y-113324032D01*
X129585649Y-113319497D01*
X129566215Y-113314194D01*
X129555176Y-113308064D01*
X129553743Y-113306751D01*
X129538732Y-113290047D01*
X129528152Y-113271742D01*
X129523360Y-113249219D01*
X129525712Y-113219861D01*
X129536565Y-113181052D01*
X129557275Y-113130175D01*
X129589200Y-113064615D01*
X129633694Y-112981754D01*
X129692117Y-112878976D01*
X129765822Y-112753665D01*
X129856169Y-112603204D01*
X129964512Y-112424978D01*
X130092208Y-112216368D01*
X130240614Y-111974759D01*
X130264473Y-111935953D01*
X130391919Y-111728999D01*
X130513734Y-111531814D01*
X130627973Y-111347506D01*
X130732691Y-111179184D01*
X130825942Y-111029956D01*
X130905783Y-110902932D01*
X130970268Y-110801220D01*
X131017453Y-110727928D01*
X131045391Y-110686166D01*
X131051329Y-110678304D01*
X131110031Y-110640310D01*
X131180751Y-110631267D01*
X131246627Y-110651682D01*
G37*
X131246627Y-110651682D02*
X131271199Y-110671683D01*
X131289240Y-110697091D01*
X131327240Y-110755117D01*
X131383020Y-110842296D01*
X131454402Y-110955163D01*
X131539206Y-111090252D01*
X131635254Y-111244098D01*
X131740367Y-111413237D01*
X131852366Y-111594201D01*
X131912315Y-111691357D01*
X132076357Y-111957553D01*
X132219543Y-112190094D01*
X132343277Y-112391334D01*
X132448964Y-112563625D01*
X132538009Y-112709322D01*
X132611817Y-112830776D01*
X132671792Y-112930342D01*
X132719339Y-113010373D01*
X132755863Y-113073222D01*
X132782768Y-113121241D01*
X132801459Y-113156785D01*
X132813341Y-113182206D01*
X132819818Y-113199858D01*
X132822296Y-113212093D01*
X132822482Y-113216090D01*
X132808219Y-113259675D01*
X132780148Y-113297679D01*
X132771336Y-113305625D01*
X132759965Y-113312510D01*
X132743126Y-113318408D01*
X132717909Y-113323397D01*
X132681403Y-113327552D01*
X132630699Y-113330950D01*
X132562887Y-113333667D01*
X132475057Y-113335778D01*
X132364300Y-113337361D01*
X132227705Y-113338490D01*
X132062363Y-113339243D01*
X131865364Y-113339696D01*
X131633797Y-113339924D01*
X131364754Y-113340004D01*
X131162410Y-113340013D01*
X130863964Y-113339940D01*
X130605023Y-113339685D01*
X130382759Y-113339188D01*
X130194344Y-113338391D01*
X130036950Y-113337236D01*
X129907748Y-113335663D01*
X129803911Y-113333615D01*
X129722611Y-113331033D01*
X129661019Y-113327858D01*
X129616308Y-113324032D01*
X129585649Y-113319497D01*
X129566215Y-113314194D01*
X129555176Y-113308064D01*
X129553743Y-113306751D01*
X129538732Y-113290047D01*
X129528152Y-113271742D01*
X129523360Y-113249219D01*
X129525712Y-113219861D01*
X129536565Y-113181052D01*
X129557275Y-113130175D01*
X129589200Y-113064615D01*
X129633694Y-112981754D01*
X129692117Y-112878976D01*
X129765822Y-112753665D01*
X129856169Y-112603204D01*
X129964512Y-112424978D01*
X130092208Y-112216368D01*
X130240614Y-111974759D01*
X130264473Y-111935953D01*
X130391919Y-111728999D01*
X130513734Y-111531814D01*
X130627973Y-111347506D01*
X130732691Y-111179184D01*
X130825942Y-111029956D01*
X130905783Y-110902932D01*
X130970268Y-110801220D01*
X131017453Y-110727928D01*
X131045391Y-110686166D01*
X131051329Y-110678304D01*
X131110031Y-110640310D01*
X131180751Y-110631267D01*
X131246627Y-110651682D01*
G36*
X129414954Y-108270965D02*
G01*
X129517690Y-108272541D01*
X129592451Y-108276028D01*
X129646415Y-108282131D01*
X129686758Y-108291554D01*
X129720658Y-108305000D01*
X129742732Y-108316282D01*
X129810132Y-108359867D01*
X129871008Y-108410604D01*
X129882191Y-108422116D01*
X129904600Y-108452481D01*
X129946502Y-108514969D01*
X130005344Y-108605564D01*
X130078572Y-108720249D01*
X130163631Y-108855008D01*
X130257970Y-109005824D01*
X130359033Y-109168683D01*
X130427607Y-109279888D01*
X130557635Y-109492235D01*
X130666013Y-109671419D01*
X130754092Y-109819813D01*
X130823223Y-109939792D01*
X130874758Y-110033732D01*
X130910048Y-110104007D01*
X130930444Y-110152993D01*
X130936235Y-110173883D01*
X130943785Y-110299229D01*
X130922528Y-110419731D01*
X130896709Y-110482513D01*
X130871219Y-110527432D01*
X130826862Y-110602298D01*
X130765893Y-110703484D01*
X130690564Y-110827362D01*
X130603129Y-110970304D01*
X130505842Y-111128681D01*
X130400956Y-111298866D01*
X130290724Y-111477231D01*
X130177400Y-111660147D01*
X130063237Y-111843987D01*
X129950489Y-112025122D01*
X129841410Y-112199925D01*
X129738252Y-112364768D01*
X129643269Y-112516022D01*
X129558715Y-112650060D01*
X129486844Y-112763254D01*
X129429908Y-112851976D01*
X129390161Y-112912597D01*
X129369857Y-112941489D01*
X129368331Y-112943138D01*
X129301796Y-112976340D01*
X129231258Y-112968946D01*
X129174799Y-112932554D01*
X129154022Y-112905602D01*
X129113672Y-112846054D01*
X129056006Y-112757584D01*
X128983282Y-112643866D01*
X128897757Y-112508575D01*
X128801689Y-112355386D01*
X128697334Y-112187972D01*
X128586951Y-112010008D01*
X128472796Y-111825168D01*
X128357127Y-111637126D01*
X128242201Y-111449558D01*
X128130277Y-111266136D01*
X128023610Y-111090536D01*
X127924459Y-110926432D01*
X127835081Y-110777497D01*
X127757733Y-110647407D01*
X127694673Y-110539836D01*
X127648158Y-110458458D01*
X127620446Y-110406947D01*
X127613665Y-110391513D01*
X127596370Y-110258652D01*
X127621337Y-110126728D01*
X127622770Y-110122679D01*
X127640264Y-110087006D01*
X127677509Y-110020214D01*
X127731637Y-109926965D01*
X127799780Y-109811925D01*
X127879072Y-109679757D01*
X127966644Y-109535127D01*
X128059629Y-109382698D01*
X128155159Y-109227135D01*
X128250366Y-109073101D01*
X128342384Y-108925262D01*
X128428345Y-108788281D01*
X128505380Y-108666823D01*
X128570623Y-108565552D01*
X128621205Y-108489133D01*
X128654260Y-108442229D01*
X128661227Y-108433569D01*
X128721306Y-108377399D01*
X128793000Y-108326341D01*
X128809394Y-108316974D01*
X128843533Y-108300286D01*
X128878994Y-108288144D01*
X128922987Y-108279835D01*
X128982725Y-108274643D01*
X129065416Y-108271852D01*
X129178272Y-108270748D01*
X129277065Y-108270596D01*
X129414954Y-108270965D01*
G37*
X129414954Y-108270965D02*
X129517690Y-108272541D01*
X129592451Y-108276028D01*
X129646415Y-108282131D01*
X129686758Y-108291554D01*
X129720658Y-108305000D01*
X129742732Y-108316282D01*
X129810132Y-108359867D01*
X129871008Y-108410604D01*
X129882191Y-108422116D01*
X129904600Y-108452481D01*
X129946502Y-108514969D01*
X130005344Y-108605564D01*
X130078572Y-108720249D01*
X130163631Y-108855008D01*
X130257970Y-109005824D01*
X130359033Y-109168683D01*
X130427607Y-109279888D01*
X130557635Y-109492235D01*
X130666013Y-109671419D01*
X130754092Y-109819813D01*
X130823223Y-109939792D01*
X130874758Y-110033732D01*
X130910048Y-110104007D01*
X130930444Y-110152993D01*
X130936235Y-110173883D01*
X130943785Y-110299229D01*
X130922528Y-110419731D01*
X130896709Y-110482513D01*
X130871219Y-110527432D01*
X130826862Y-110602298D01*
X130765893Y-110703484D01*
X130690564Y-110827362D01*
X130603129Y-110970304D01*
X130505842Y-111128681D01*
X130400956Y-111298866D01*
X130290724Y-111477231D01*
X130177400Y-111660147D01*
X130063237Y-111843987D01*
X129950489Y-112025122D01*
X129841410Y-112199925D01*
X129738252Y-112364768D01*
X129643269Y-112516022D01*
X129558715Y-112650060D01*
X129486844Y-112763254D01*
X129429908Y-112851976D01*
X129390161Y-112912597D01*
X129369857Y-112941489D01*
X129368331Y-112943138D01*
X129301796Y-112976340D01*
X129231258Y-112968946D01*
X129174799Y-112932554D01*
X129154022Y-112905602D01*
X129113672Y-112846054D01*
X129056006Y-112757584D01*
X128983282Y-112643866D01*
X128897757Y-112508575D01*
X128801689Y-112355386D01*
X128697334Y-112187972D01*
X128586951Y-112010008D01*
X128472796Y-111825168D01*
X128357127Y-111637126D01*
X128242201Y-111449558D01*
X128130277Y-111266136D01*
X128023610Y-111090536D01*
X127924459Y-110926432D01*
X127835081Y-110777497D01*
X127757733Y-110647407D01*
X127694673Y-110539836D01*
X127648158Y-110458458D01*
X127620446Y-110406947D01*
X127613665Y-110391513D01*
X127596370Y-110258652D01*
X127621337Y-110126728D01*
X127622770Y-110122679D01*
X127640264Y-110087006D01*
X127677509Y-110020214D01*
X127731637Y-109926965D01*
X127799780Y-109811925D01*
X127879072Y-109679757D01*
X127966644Y-109535127D01*
X128059629Y-109382698D01*
X128155159Y-109227135D01*
X128250366Y-109073101D01*
X128342384Y-108925262D01*
X128428345Y-108788281D01*
X128505380Y-108666823D01*
X128570623Y-108565552D01*
X128621205Y-108489133D01*
X128654260Y-108442229D01*
X128661227Y-108433569D01*
X128721306Y-108377399D01*
X128793000Y-108326341D01*
X128809394Y-108316974D01*
X128843533Y-108300286D01*
X128878994Y-108288144D01*
X128922987Y-108279835D01*
X128982725Y-108274643D01*
X129065416Y-108271852D01*
X129178272Y-108270748D01*
X129277065Y-108270596D01*
X129414954Y-108270965D01*
G36*
X125704771Y-108261332D02*
G01*
X125789027Y-108266608D01*
X125862430Y-108279042D01*
X125928314Y-108301460D01*
X125990013Y-108336689D01*
X126050861Y-108387557D01*
X126114191Y-108456889D01*
X126183338Y-108547514D01*
X126261635Y-108662258D01*
X126352415Y-108803949D01*
X126459014Y-108975413D01*
X126584765Y-109179477D01*
X126597030Y-109199367D01*
X126874166Y-109648737D01*
X127129874Y-110063482D01*
X127364989Y-110444983D01*
X127580350Y-110794620D01*
X127776794Y-111113772D01*
X127955159Y-111403819D01*
X128116281Y-111666142D01*
X128260999Y-111902120D01*
X128390150Y-112113133D01*
X128504571Y-112300561D01*
X128605100Y-112465785D01*
X128692574Y-112610183D01*
X128767831Y-112735137D01*
X128831708Y-112842025D01*
X128885042Y-112932228D01*
X128928671Y-113007126D01*
X128963432Y-113068099D01*
X128990163Y-113116526D01*
X129009702Y-113153788D01*
X129022885Y-113181264D01*
X129030550Y-113200335D01*
X129033535Y-113212380D01*
X129033648Y-113214433D01*
X129033936Y-113237443D01*
X129032962Y-113257459D01*
X129027974Y-113274690D01*
X129016217Y-113289342D01*
X128994938Y-113301622D01*
X128961383Y-113311739D01*
X128912799Y-113319900D01*
X128846430Y-113326312D01*
X128759524Y-113331183D01*
X128649327Y-113334719D01*
X128513085Y-113337129D01*
X128348044Y-113338620D01*
X128151450Y-113339399D01*
X127920550Y-113339673D01*
X127652590Y-113339651D01*
X127372647Y-113339548D01*
X127077563Y-113339433D01*
X126821796Y-113339224D01*
X126602327Y-113338842D01*
X126416139Y-113338207D01*
X126260215Y-113337239D01*
X126131537Y-113335861D01*
X126027088Y-113333991D01*
X125943851Y-113331553D01*
X125878807Y-113328465D01*
X125828941Y-113324648D01*
X125791234Y-113320025D01*
X125762668Y-113314514D01*
X125740227Y-113308038D01*
X125720894Y-113300516D01*
X125710482Y-113295901D01*
X125642375Y-113260121D01*
X125583201Y-113220954D01*
X125566717Y-113207173D01*
X125548016Y-113182138D01*
X125509041Y-113123904D01*
X125451622Y-113035376D01*
X125377591Y-112919458D01*
X125288776Y-112779055D01*
X125187009Y-112617072D01*
X125074121Y-112436415D01*
X124951941Y-112239987D01*
X124822300Y-112030694D01*
X124687028Y-111811441D01*
X124678193Y-111797092D01*
X123838185Y-110432557D01*
X123830210Y-110291418D01*
X123829372Y-110194128D01*
X123841249Y-110122945D01*
X123859459Y-110078271D01*
X123878234Y-110045334D01*
X123916762Y-109980477D01*
X123972552Y-109887801D01*
X124043115Y-109771404D01*
X124125962Y-109635388D01*
X124218603Y-109483851D01*
X124318548Y-109320894D01*
X124382175Y-109217412D01*
X124522513Y-108990790D01*
X124642334Y-108800348D01*
X124742045Y-108645467D01*
X124822057Y-108525530D01*
X124882777Y-108439916D01*
X124924615Y-108388007D01*
X124939781Y-108373558D01*
X124998865Y-108332939D01*
X125059191Y-108303257D01*
X125128802Y-108282868D01*
X125215742Y-108270126D01*
X125328055Y-108263386D01*
X125473783Y-108261003D01*
X125490365Y-108260942D01*
X125606328Y-108260385D01*
X125704771Y-108261332D01*
G37*
X125704771Y-108261332D02*
X125789027Y-108266608D01*
X125862430Y-108279042D01*
X125928314Y-108301460D01*
X125990013Y-108336689D01*
X126050861Y-108387557D01*
X126114191Y-108456889D01*
X126183338Y-108547514D01*
X126261635Y-108662258D01*
X126352415Y-108803949D01*
X126459014Y-108975413D01*
X126584765Y-109179477D01*
X126597030Y-109199367D01*
X126874166Y-109648737D01*
X127129874Y-110063482D01*
X127364989Y-110444983D01*
X127580350Y-110794620D01*
X127776794Y-111113772D01*
X127955159Y-111403819D01*
X128116281Y-111666142D01*
X128260999Y-111902120D01*
X128390150Y-112113133D01*
X128504571Y-112300561D01*
X128605100Y-112465785D01*
X128692574Y-112610183D01*
X128767831Y-112735137D01*
X128831708Y-112842025D01*
X128885042Y-112932228D01*
X128928671Y-113007126D01*
X128963432Y-113068099D01*
X128990163Y-113116526D01*
X129009702Y-113153788D01*
X129022885Y-113181264D01*
X129030550Y-113200335D01*
X129033535Y-113212380D01*
X129033648Y-113214433D01*
X129033936Y-113237443D01*
X129032962Y-113257459D01*
X129027974Y-113274690D01*
X129016217Y-113289342D01*
X128994938Y-113301622D01*
X128961383Y-113311739D01*
X128912799Y-113319900D01*
X128846430Y-113326312D01*
X128759524Y-113331183D01*
X128649327Y-113334719D01*
X128513085Y-113337129D01*
X128348044Y-113338620D01*
X128151450Y-113339399D01*
X127920550Y-113339673D01*
X127652590Y-113339651D01*
X127372647Y-113339548D01*
X127077563Y-113339433D01*
X126821796Y-113339224D01*
X126602327Y-113338842D01*
X126416139Y-113338207D01*
X126260215Y-113337239D01*
X126131537Y-113335861D01*
X126027088Y-113333991D01*
X125943851Y-113331553D01*
X125878807Y-113328465D01*
X125828941Y-113324648D01*
X125791234Y-113320025D01*
X125762668Y-113314514D01*
X125740227Y-113308038D01*
X125720894Y-113300516D01*
X125710482Y-113295901D01*
X125642375Y-113260121D01*
X125583201Y-113220954D01*
X125566717Y-113207173D01*
X125548016Y-113182138D01*
X125509041Y-113123904D01*
X125451622Y-113035376D01*
X125377591Y-112919458D01*
X125288776Y-112779055D01*
X125187009Y-112617072D01*
X125074121Y-112436415D01*
X124951941Y-112239987D01*
X124822300Y-112030694D01*
X124687028Y-111811441D01*
X124678193Y-111797092D01*
X123838185Y-110432557D01*
X123830210Y-110291418D01*
X123829372Y-110194128D01*
X123841249Y-110122945D01*
X123859459Y-110078271D01*
X123878234Y-110045334D01*
X123916762Y-109980477D01*
X123972552Y-109887801D01*
X124043115Y-109771404D01*
X124125962Y-109635388D01*
X124218603Y-109483851D01*
X124318548Y-109320894D01*
X124382175Y-109217412D01*
X124522513Y-108990790D01*
X124642334Y-108800348D01*
X124742045Y-108645467D01*
X124822057Y-108525530D01*
X124882777Y-108439916D01*
X124924615Y-108388007D01*
X124939781Y-108373558D01*
X124998865Y-108332939D01*
X125059191Y-108303257D01*
X125128802Y-108282868D01*
X125215742Y-108270126D01*
X125328055Y-108263386D01*
X125473783Y-108261003D01*
X125490365Y-108260942D01*
X125606328Y-108260385D01*
X125704771Y-108261332D01*
G36*
X131818004Y-108260013D02*
G01*
X132121584Y-108260017D01*
X132385825Y-108260168D01*
X132613722Y-108260667D01*
X132808270Y-108261718D01*
X132972461Y-108263525D01*
X133109293Y-108266291D01*
X133221758Y-108270219D01*
X133312851Y-108275512D01*
X133385567Y-108282374D01*
X133442900Y-108291009D01*
X133487845Y-108301619D01*
X133523396Y-108314408D01*
X133552548Y-108329580D01*
X133578295Y-108347337D01*
X133603631Y-108367884D01*
X133620838Y-108382442D01*
X133642046Y-108409055D01*
X133684414Y-108470545D01*
X133747119Y-108565607D01*
X133829340Y-108692938D01*
X133930258Y-108851233D01*
X134049049Y-109039190D01*
X134184895Y-109255503D01*
X134336973Y-109498869D01*
X134504463Y-109767985D01*
X134686543Y-110061546D01*
X134882392Y-110378249D01*
X135091190Y-110716789D01*
X135109857Y-110747096D01*
X135286201Y-111033497D01*
X135456699Y-111310540D01*
X135620002Y-111576023D01*
X135774757Y-111827743D01*
X135919613Y-112063496D01*
X136053218Y-112281080D01*
X136174221Y-112478293D01*
X136281270Y-112652930D01*
X136373014Y-112802790D01*
X136448101Y-112925669D01*
X136505179Y-113019365D01*
X136542898Y-113081675D01*
X136559906Y-113110396D01*
X136560459Y-113111420D01*
X136587394Y-113193699D01*
X136579632Y-113264394D01*
X136551440Y-113304982D01*
X136541391Y-113311596D01*
X136524971Y-113317327D01*
X136499311Y-113322237D01*
X136461545Y-113326389D01*
X136408805Y-113329844D01*
X136338224Y-113332663D01*
X136246935Y-113334909D01*
X136132071Y-113336644D01*
X135990763Y-113337929D01*
X135820145Y-113338826D01*
X135617350Y-113339398D01*
X135379509Y-113339705D01*
X135103757Y-113339811D01*
X134937481Y-113339806D01*
X133362232Y-113339599D01*
X133256398Y-113289690D01*
X133187144Y-113251642D01*
X133127847Y-113209931D01*
X133105728Y-113189355D01*
X133089273Y-113165385D01*
X133052014Y-113107524D01*
X132995304Y-113017953D01*
X132920499Y-112898851D01*
X132828953Y-112752399D01*
X132722021Y-112580776D01*
X132601057Y-112386162D01*
X132467416Y-112170737D01*
X132322452Y-111936681D01*
X132167521Y-111686175D01*
X132003977Y-111421397D01*
X131833175Y-111144528D01*
X131656469Y-110857748D01*
X131618769Y-110796520D01*
X131395586Y-110433744D01*
X131194039Y-110105563D01*
X131013344Y-109810664D01*
X130852712Y-109547735D01*
X130711359Y-109315463D01*
X130588498Y-109112538D01*
X130483341Y-108937646D01*
X130395104Y-108789475D01*
X130323000Y-108666713D01*
X130266241Y-108568048D01*
X130224043Y-108492168D01*
X130195618Y-108437759D01*
X130180180Y-108403511D01*
X130176648Y-108390012D01*
X130176295Y-108366062D01*
X130177083Y-108345245D01*
X130181780Y-108327343D01*
X130193157Y-108312135D01*
X130213981Y-108299403D01*
X130247023Y-108288927D01*
X130295051Y-108280488D01*
X130360835Y-108273867D01*
X130447143Y-108268844D01*
X130556746Y-108265200D01*
X130692412Y-108262715D01*
X130856910Y-108261171D01*
X131053010Y-108260348D01*
X131283481Y-108260027D01*
X131551091Y-108259988D01*
X131818004Y-108260013D01*
G37*
X131818004Y-108260013D02*
X132121584Y-108260017D01*
X132385825Y-108260168D01*
X132613722Y-108260667D01*
X132808270Y-108261718D01*
X132972461Y-108263525D01*
X133109293Y-108266291D01*
X133221758Y-108270219D01*
X133312851Y-108275512D01*
X133385567Y-108282374D01*
X133442900Y-108291009D01*
X133487845Y-108301619D01*
X133523396Y-108314408D01*
X133552548Y-108329580D01*
X133578295Y-108347337D01*
X133603631Y-108367884D01*
X133620838Y-108382442D01*
X133642046Y-108409055D01*
X133684414Y-108470545D01*
X133747119Y-108565607D01*
X133829340Y-108692938D01*
X133930258Y-108851233D01*
X134049049Y-109039190D01*
X134184895Y-109255503D01*
X134336973Y-109498869D01*
X134504463Y-109767985D01*
X134686543Y-110061546D01*
X134882392Y-110378249D01*
X135091190Y-110716789D01*
X135109857Y-110747096D01*
X135286201Y-111033497D01*
X135456699Y-111310540D01*
X135620002Y-111576023D01*
X135774757Y-111827743D01*
X135919613Y-112063496D01*
X136053218Y-112281080D01*
X136174221Y-112478293D01*
X136281270Y-112652930D01*
X136373014Y-112802790D01*
X136448101Y-112925669D01*
X136505179Y-113019365D01*
X136542898Y-113081675D01*
X136559906Y-113110396D01*
X136560459Y-113111420D01*
X136587394Y-113193699D01*
X136579632Y-113264394D01*
X136551440Y-113304982D01*
X136541391Y-113311596D01*
X136524971Y-113317327D01*
X136499311Y-113322237D01*
X136461545Y-113326389D01*
X136408805Y-113329844D01*
X136338224Y-113332663D01*
X136246935Y-113334909D01*
X136132071Y-113336644D01*
X135990763Y-113337929D01*
X135820145Y-113338826D01*
X135617350Y-113339398D01*
X135379509Y-113339705D01*
X135103757Y-113339811D01*
X134937481Y-113339806D01*
X133362232Y-113339599D01*
X133256398Y-113289690D01*
X133187144Y-113251642D01*
X133127847Y-113209931D01*
X133105728Y-113189355D01*
X133089273Y-113165385D01*
X133052014Y-113107524D01*
X132995304Y-113017953D01*
X132920499Y-112898851D01*
X132828953Y-112752399D01*
X132722021Y-112580776D01*
X132601057Y-112386162D01*
X132467416Y-112170737D01*
X132322452Y-111936681D01*
X132167521Y-111686175D01*
X132003977Y-111421397D01*
X131833175Y-111144528D01*
X131656469Y-110857748D01*
X131618769Y-110796520D01*
X131395586Y-110433744D01*
X131194039Y-110105563D01*
X131013344Y-109810664D01*
X130852712Y-109547735D01*
X130711359Y-109315463D01*
X130588498Y-109112538D01*
X130483341Y-108937646D01*
X130395104Y-108789475D01*
X130323000Y-108666713D01*
X130266241Y-108568048D01*
X130224043Y-108492168D01*
X130195618Y-108437759D01*
X130180180Y-108403511D01*
X130176648Y-108390012D01*
X130176295Y-108366062D01*
X130177083Y-108345245D01*
X130181780Y-108327343D01*
X130193157Y-108312135D01*
X130213981Y-108299403D01*
X130247023Y-108288927D01*
X130295051Y-108280488D01*
X130360835Y-108273867D01*
X130447143Y-108268844D01*
X130556746Y-108265200D01*
X130692412Y-108262715D01*
X130856910Y-108261171D01*
X131053010Y-108260348D01*
X131283481Y-108260027D01*
X131551091Y-108259988D01*
X131818004Y-108260013D01*
%TD*%
D11*
%TO.C,R1*%
X157787811Y-115000000D03*
X156767811Y-115000000D03*
%TD*%
%TO.C,R5*%
X116810000Y-91000000D03*
X115790000Y-91000000D03*
%TD*%
D12*
%TO.C,U2*%
X120799999Y-91272399D03*
X120799999Y-90322399D03*
X120799999Y-89372399D03*
X118599999Y-89372399D03*
X118599999Y-91272399D03*
%TD*%
D13*
%TO.C,C1*%
X115820000Y-93000000D03*
X116780000Y-93000000D03*
%TD*%
D11*
%TO.C,R6*%
X121310000Y-109700000D03*
X120290000Y-109700000D03*
%TD*%
%TO.C,R7*%
X121310000Y-108500000D03*
X120290000Y-108500000D03*
%TD*%
D14*
%TO.C,J2*%
X137159999Y-119379999D03*
D15*
X137159999Y-121919999D03*
X134619999Y-119379999D03*
X134619999Y-121919999D03*
X132079999Y-119379999D03*
X132079999Y-121919999D03*
X129539999Y-119379999D03*
X129539999Y-121919999D03*
X126999999Y-119379999D03*
X126999999Y-121919999D03*
X124459999Y-119379999D03*
X124459999Y-121919999D03*
X121919999Y-119379999D03*
X121919999Y-121919999D03*
X119379999Y-119379999D03*
X119379999Y-121919999D03*
X116839999Y-119379999D03*
X116839999Y-121919999D03*
X114299999Y-119379999D03*
X114299999Y-121919999D03*
%TD*%
D16*
%TO.C,J1*%
X113100000Y-90982800D03*
D17*
X113099999Y-92982799D03*
X113099999Y-94982799D03*
X113099999Y-96982799D03*
%TD*%
D18*
%TO.C,J3*%
X142050000Y-121900000D03*
D17*
X142049999Y-119899999D03*
%TD*%
D18*
%TO.C,J4*%
X147250000Y-121900000D03*
D17*
X147249999Y-119899999D03*
%TD*%
D19*
%TO.C,J5*%
X165324999Y-83449999D03*
D20*
X161825000Y-83450000D03*
X158325000Y-83450000D03*
X154825000Y-83450000D03*
X151325000Y-83450000D03*
%TD*%
D19*
%TO.C,J6*%
X147474999Y-83449999D03*
D20*
X143975000Y-83450000D03*
X140475000Y-83450000D03*
X136975000Y-83450000D03*
X133475000Y-83450000D03*
%TD*%
D19*
%TO.C,J7*%
X129524999Y-83449999D03*
D20*
X126025000Y-83450000D03*
X122525000Y-83450000D03*
X119025000Y-83450000D03*
X115525000Y-83450000D03*
%TD*%
D19*
%TO.C,J8*%
X183199999Y-83449999D03*
D20*
X179700000Y-83450000D03*
X176200000Y-83450000D03*
X172700000Y-83450000D03*
X169200000Y-83450000D03*
%TD*%
D16*
%TO.C,J12*%
X113000000Y-105000000D03*
D17*
X112999999Y-106999999D03*
X112999999Y-108999999D03*
X112999999Y-110999999D03*
%TD*%
D21*
%TO.C,H1*%
X107378000Y-83200000D03*
%TD*%
%TO.C,H3*%
X107378000Y-120460000D03*
%TD*%
%TO.C,H4*%
X195517000Y-120460000D03*
%TD*%
%TO.C,H2*%
X195517000Y-83248000D03*
%TD*%
D22*
%TO.C,J9*%
X118023999Y-110799999D03*
X118023999Y-105199999D03*
D23*
X116175999Y-109492999D03*
X116175999Y-108492999D03*
X116175999Y-107492999D03*
X116175999Y-106492999D03*
%TD*%
D22*
%TO.C,J13*%
X156223999Y-104399999D03*
X156223999Y-98799999D03*
D23*
X154375999Y-103092999D03*
X154375999Y-102092999D03*
X154375999Y-101092999D03*
X154375999Y-100092999D03*
%TD*%
D24*
%TO.C,C9*%
X163310000Y-102600000D03*
X162350000Y-102600000D03*
%TD*%
D25*
%TO.C,U9*%
X168519999Y-113704999D03*
X169019999Y-113704999D03*
X169519999Y-113704999D03*
X170019999Y-113704999D03*
X170519999Y-113704999D03*
X170519999Y-112654999D03*
X170019999Y-112654999D03*
X169519999Y-112654999D03*
X169019999Y-112654999D03*
X168519999Y-112654999D03*
%TD*%
D18*
%TO.C,J26*%
X178450000Y-121900000D03*
D17*
X178449999Y-119899999D03*
%TD*%
D14*
%TO.C,J20*%
X187399999Y-84001951D03*
D15*
X189939999Y-84001951D03*
%TD*%
D26*
%TO.C,R15*%
X173000000Y-95790000D03*
X173000000Y-96810000D03*
%TD*%
D18*
%TO.C,J21*%
X152450000Y-121900000D03*
D17*
X152449999Y-119899999D03*
X152449999Y-117899999D03*
X152449999Y-115899999D03*
%TD*%
D18*
%TO.C,J11*%
X173250000Y-121900000D03*
D17*
X173249999Y-119899999D03*
X173249999Y-117899999D03*
%TD*%
D14*
%TO.C,J14*%
X189999999Y-87699999D03*
D15*
X187459999Y-87699999D03*
%TD*%
D27*
%TO.C,R4*%
X156300000Y-118710000D03*
X156300000Y-117690000D03*
%TD*%
D13*
%TO.C,C8*%
X173720000Y-100700000D03*
X174680000Y-100700000D03*
%TD*%
D25*
%TO.C,U11*%
X163319999Y-112774999D03*
X163819999Y-112774999D03*
X164319999Y-112774999D03*
X164819999Y-112774999D03*
X165319999Y-112774999D03*
X165319999Y-111724999D03*
X164819999Y-111724999D03*
X164319999Y-111724999D03*
X163819999Y-111724999D03*
X163319999Y-111724999D03*
%TD*%
D28*
%TO.C,C11*%
X167460000Y-106180000D03*
X167460000Y-107140000D03*
%TD*%
D11*
%TO.C,R18*%
X176710000Y-102110000D03*
X175690000Y-102110000D03*
%TD*%
D29*
%TO.C,R3*%
X163290000Y-115450000D03*
X164310000Y-115450000D03*
%TD*%
D30*
%TO.C,J16*%
X185399999Y-104249999D03*
D31*
X185400000Y-106750000D03*
X187400000Y-106750000D03*
X187400000Y-104250000D03*
D32*
X190260000Y-99500000D03*
X190260000Y-111500000D03*
%TD*%
D25*
%TO.C,U7*%
X160859999Y-89864999D03*
X160359999Y-89864999D03*
X159859999Y-89864999D03*
X159359999Y-89864999D03*
X158859999Y-89864999D03*
X158859999Y-90914999D03*
X159359999Y-90914999D03*
X159859999Y-90914999D03*
X160359999Y-90914999D03*
X160859999Y-90914999D03*
%TD*%
D33*
%TO.C,D2*%
X167025000Y-111250000D03*
X167995000Y-111250000D03*
%TD*%
D14*
%TO.C,J19*%
X105299999Y-89999999D03*
D15*
X105299999Y-92539999D03*
X105299999Y-95079999D03*
X105299999Y-97619999D03*
%TD*%
D34*
%TO.C,U3*%
X172899999Y-113149999D03*
X175199999Y-113149999D03*
D35*
X175199999Y-106849999D03*
D34*
X177499999Y-113149999D03*
%TD*%
D36*
%TO.C,FLASH1*%
X177003841Y-96202081D03*
X177901866Y-97100106D03*
X178799892Y-97998132D03*
X179697917Y-98896157D03*
X184796157Y-93797917D03*
X183898132Y-92899892D03*
X183000106Y-92001866D03*
X182102081Y-91103841D03*
%TD*%
D37*
%TO.C,Q2*%
X163737500Y-118650000D03*
X163737500Y-116750000D03*
X161862500Y-117700000D03*
%TD*%
D14*
%TO.C,J22*%
X158224999Y-122574999D03*
D15*
X160764999Y-122574999D03*
X163304999Y-122574999D03*
X165844999Y-122574999D03*
X168384999Y-122574999D03*
%TD*%
D38*
%TO.C,U4*%
X171220000Y-97992500D03*
X170820000Y-97992500D03*
X170420000Y-97992500D03*
X170020000Y-97992500D03*
X169620000Y-97992500D03*
X169220000Y-97992500D03*
X168820000Y-97992500D03*
X168420000Y-97992500D03*
X168020000Y-97992500D03*
X167620000Y-97992500D03*
X167220000Y-97992500D03*
X166820000Y-97992500D03*
X166420000Y-97992500D03*
X166020000Y-97992500D03*
D39*
X165182500Y-98830000D03*
X165182500Y-99230000D03*
X165182500Y-99630000D03*
X165182500Y-100030000D03*
X165182500Y-100430000D03*
X165182500Y-100830000D03*
X165182500Y-101230000D03*
X165182500Y-101630000D03*
X165182500Y-102030000D03*
X165182500Y-102430000D03*
X165182500Y-102830000D03*
X165182500Y-103230000D03*
X165182500Y-103630000D03*
X165182500Y-104030000D03*
D38*
X166020000Y-104867500D03*
X166420000Y-104867500D03*
X166820000Y-104867500D03*
X167220000Y-104867500D03*
X167620000Y-104867500D03*
X168020000Y-104867500D03*
X168420000Y-104867500D03*
X168820000Y-104867500D03*
X169220000Y-104867500D03*
X169620000Y-104867500D03*
X170020000Y-104867500D03*
X170420000Y-104867500D03*
X170820000Y-104867500D03*
X171220000Y-104867500D03*
D39*
X172057500Y-104030000D03*
X172057500Y-103630000D03*
X172057500Y-103230000D03*
X172057500Y-102830000D03*
X172057500Y-102430000D03*
X172057500Y-102030000D03*
X172057500Y-101630000D03*
X172057500Y-101230000D03*
X172057500Y-100830000D03*
X172057500Y-100430000D03*
X172057500Y-100030000D03*
X172057500Y-99630000D03*
X172057500Y-99230000D03*
X172057500Y-98830000D03*
D40*
X168620000Y-101430000D03*
%TD*%
D41*
%TO.C,R14*%
X174100000Y-96780000D03*
X174100000Y-95820000D03*
%TD*%
D29*
%TO.C,R21*%
X190900000Y-93000000D03*
X191920000Y-93000000D03*
%TD*%
D11*
%TO.C,R2*%
X162360000Y-114400000D03*
X161340000Y-114400000D03*
%TD*%
D29*
%TO.C,R8*%
X161340000Y-115450000D03*
X162360000Y-115450000D03*
%TD*%
D42*
%TO.C,Y1*%
X160649999Y-100649999D03*
X160649999Y-98449999D03*
X159049999Y-98449999D03*
X159049999Y-100649999D03*
%TD*%
D13*
%TO.C,C7*%
X176120000Y-105000000D03*
X177080000Y-105000000D03*
%TD*%
D14*
%TO.C,J10*%
X105299999Y-104099999D03*
D15*
X105299999Y-106639999D03*
X105299999Y-109179999D03*
X105299999Y-111719999D03*
%TD*%
D25*
%TO.C,U1*%
X174459999Y-90409999D03*
X173959999Y-90409999D03*
X173459999Y-90409999D03*
X172959999Y-90409999D03*
X172459999Y-90409999D03*
X172459999Y-91459999D03*
X172959999Y-91459999D03*
X173459999Y-91459999D03*
X173959999Y-91459999D03*
X174459999Y-91459999D03*
%TD*%
D43*
%TO.C,D1*%
X179212500Y-115200000D03*
X180787500Y-115200000D03*
%TD*%
D29*
%TO.C,R10*%
X168020000Y-109860000D03*
X169040000Y-109860000D03*
%TD*%
D44*
%TO.C,J18*%
X148400000Y-97200000D03*
D45*
X150400000Y-98800000D03*
D46*
X150399999Y-101299999D03*
X150399999Y-103799999D03*
X150399999Y-106299999D03*
X150399999Y-108799999D03*
%TD*%
D11*
%TO.C,R19*%
X176710000Y-103110000D03*
X175690000Y-103110000D03*
%TD*%
D41*
%TO.C,C15*%
X167400000Y-96780000D03*
X167400000Y-95820000D03*
%TD*%
D25*
%TO.C,U6*%
X143099999Y-89339999D03*
X142599999Y-89339999D03*
X142099999Y-89339999D03*
X141599999Y-89339999D03*
X141099999Y-89339999D03*
X141099999Y-90389999D03*
X141599999Y-90389999D03*
X142099999Y-90389999D03*
X142599999Y-90389999D03*
X143099999Y-90389999D03*
%TD*%
D29*
%TO.C,R22*%
X190990000Y-90400000D03*
X192010000Y-90400000D03*
%TD*%
D41*
%TO.C,C14*%
X171900000Y-96780000D03*
X171900000Y-95820000D03*
%TD*%
D37*
%TO.C,Q1*%
X159787500Y-118650000D03*
X159787500Y-116750000D03*
X157912500Y-117700000D03*
%TD*%
D25*
%TO.C,U5*%
X125299999Y-90274999D03*
X124799999Y-90274999D03*
X124299999Y-90274999D03*
X123799999Y-90274999D03*
X123299999Y-90274999D03*
X123299999Y-91324999D03*
X123799999Y-91324999D03*
X124299999Y-91324999D03*
X124799999Y-91324999D03*
X125299999Y-91324999D03*
%TD*%
D13*
%TO.C,C12*%
X173460000Y-104535062D03*
X174420000Y-104535062D03*
%TD*%
%TO.C,C10*%
X173520000Y-103500000D03*
X174480000Y-103500000D03*
%TD*%
D47*
%TO.C,D3*%
X187600000Y-93272500D03*
X187600000Y-94847500D03*
%TD*%
D48*
%TO.C,SW1*%
X182665657Y-118249999D03*
X190615657Y-118249999D03*
X190615657Y-120499999D03*
X182665657Y-122749999D03*
X190615657Y-122749999D03*
%TD*%
D49*
%TO.C,C5*%
X183260589Y-89939411D03*
X183939411Y-89260589D03*
%TD*%
D44*
%TO.C,J17*%
X141500000Y-97200000D03*
D45*
X143500000Y-98800000D03*
D46*
X143499999Y-101299999D03*
X143499999Y-103799999D03*
X143499999Y-106299999D03*
X143499999Y-108799999D03*
%TD*%
D41*
%TO.C,C6*%
X182000000Y-116180000D03*
X182000000Y-115220000D03*
%TD*%
D25*
%TO.C,U8*%
X157249999Y-113694999D03*
X157749999Y-113694999D03*
X158249999Y-113694999D03*
X158749999Y-113694999D03*
X159249999Y-113694999D03*
X159249999Y-112644999D03*
X158749999Y-112644999D03*
X158249999Y-112644999D03*
X157749999Y-112644999D03*
X157249999Y-112644999D03*
%TD*%
D24*
%TO.C,C4*%
X160330000Y-96900000D03*
X159370000Y-96900000D03*
%TD*%
D13*
%TO.C,C3*%
X159370000Y-102210000D03*
X160330000Y-102210000D03*
%TD*%
D11*
%TO.C,R16*%
X163430000Y-100650000D03*
X162410000Y-100650000D03*
%TD*%
D50*
%TO.C,J15*%
X194443337Y-94764000D03*
X194493337Y-88984000D03*
D51*
X193393336Y-95223999D03*
X193393336Y-94423999D03*
X193393336Y-93123999D03*
X193393336Y-92123999D03*
X193393336Y-91623999D03*
X193393336Y-93623999D03*
X193393336Y-89323999D03*
X193393336Y-88523999D03*
X193393336Y-88823999D03*
X193393336Y-89623999D03*
X193393336Y-90123999D03*
X193393336Y-91123999D03*
X193393336Y-92623999D03*
X193393336Y-90623999D03*
X193393336Y-94123999D03*
X193393336Y-94923999D03*
D52*
X193943336Y-96193999D03*
D53*
X198093336Y-96193999D03*
D52*
X193943336Y-87553999D03*
D53*
X198093336Y-87553999D03*
%TD*%
D54*
%TO.C,U10*%
X178074999Y-101399999D03*
X178074999Y-101899999D03*
X178074999Y-102399999D03*
X178074999Y-102899999D03*
X178074999Y-103399999D03*
X179124999Y-103399999D03*
X179124999Y-102899999D03*
X179124999Y-102399999D03*
X179124999Y-101899999D03*
X179124999Y-101399999D03*
%TD*%
D24*
%TO.C,C17*%
X163410000Y-101630000D03*
X162450000Y-101630000D03*
%TD*%
D11*
%TO.C,R9*%
X187600000Y-96190000D03*
X186580000Y-96190000D03*
%TD*%
D14*
%TO.C,J24*%
X181799999Y-112199999D03*
D15*
X181799999Y-109659999D03*
X181799999Y-107119999D03*
X181799999Y-104579999D03*
X181799999Y-102039999D03*
%TD*%
D13*
%TO.C,C13*%
X173420000Y-101700000D03*
X174380000Y-101700000D03*
%TD*%
D28*
%TO.C,C16*%
X171100000Y-106120000D03*
X171100000Y-107080000D03*
%TD*%
M02*
