%TF.GenerationSoftware,KiCad,Pcbnew,(7.0.0-0)*%
%TF.CreationDate,2023-09-11T01:39:21-06:00*%
%TF.ProjectId,ReflexFightingBoard,5265666c-6578-4466-9967-6874696e6742,rev?*%
%TF.SameCoordinates,Original*%
%TF.FileFunction,Paste,Top*%
%TF.FilePolarity,Positive*%
%FSLAX46Y46*%
G04 Gerber Fmt 4.6, Leading zero omitted, Abs format (unit mm)*
G04 Created by KiCad (PCBNEW (7.0.0-0)) date 2023-09-11 01:39:21*
%MOMM*%
%LPD*%
G01*
G04 APERTURE LIST*
G04 Aperture macros list*
%AMRoundRect*
0 Rectangle with rounded corners*
0 $1 Rounding radius*
0 $2 $3 $4 $5 $6 $7 $8 $9 X,Y pos of 4 corners*
0 Add a 4 corners polygon primitive as box body*
4,1,4,$2,$3,$4,$5,$6,$7,$8,$9,$2,$3,0*
0 Add four circle primitives for the rounded corners*
1,1,$1+$1,$2,$3*
1,1,$1+$1,$4,$5*
1,1,$1+$1,$6,$7*
1,1,$1+$1,$8,$9*
0 Add four rect primitives between the rounded corners*
20,1,$1+$1,$2,$3,$4,$5,0*
20,1,$1+$1,$4,$5,$6,$7,0*
20,1,$1+$1,$6,$7,$8,$9,0*
20,1,$1+$1,$8,$9,$2,$3,0*%
%AMRotRect*
0 Rectangle, with rotation*
0 The origin of the aperture is its center*
0 $1 length*
0 $2 width*
0 $3 Rotation angle, in degrees counterclockwise*
0 Add horizontal line*
21,1,$1,$2,0,0,$3*%
G04 Aperture macros list end*
%ADD10RoundRect,0.135000X0.135000X0.185000X-0.135000X0.185000X-0.135000X-0.185000X0.135000X-0.185000X0*%
%ADD11R,1.060000X0.650000*%
%ADD12RoundRect,0.140000X-0.140000X-0.170000X0.140000X-0.170000X0.140000X0.170000X-0.140000X0.170000X0*%
%ADD13RoundRect,0.135000X0.185000X-0.135000X0.185000X0.135000X-0.185000X0.135000X-0.185000X-0.135000X0*%
%ADD14RoundRect,0.135000X-0.185000X0.135000X-0.185000X-0.135000X0.185000X-0.135000X0.185000X0.135000X0*%
%ADD15RoundRect,0.140000X0.140000X0.170000X-0.140000X0.170000X-0.140000X-0.170000X0.140000X-0.170000X0*%
%ADD16O,0.200000X0.700000*%
%ADD17R,2.000000X1.000000*%
%ADD18RoundRect,0.140000X-0.170000X0.140000X-0.170000X-0.140000X0.170000X-0.140000X0.170000X0.140000X0*%
%ADD19RoundRect,0.135000X-0.135000X-0.185000X0.135000X-0.185000X0.135000X0.185000X-0.135000X0.185000X0*%
%ADD20RoundRect,0.147500X-0.147500X-0.172500X0.147500X-0.172500X0.147500X0.172500X-0.147500X0.172500X0*%
%ADD21R,1.500000X2.000000*%
%ADD22R,3.800000X2.000000*%
%ADD23RotRect,1.610000X0.580000X45.000000*%
%ADD24RoundRect,0.150000X0.587500X0.150000X-0.587500X0.150000X-0.587500X-0.150000X0.587500X-0.150000X0*%
%ADD25RoundRect,0.250000X-0.292217X0.292217X-0.292217X-0.292217X0.292217X-0.292217X0.292217X0.292217X0*%
%ADD26RoundRect,0.050000X-0.050000X0.387500X-0.050000X-0.387500X0.050000X-0.387500X0.050000X0.387500X0*%
%ADD27RoundRect,0.050000X-0.387500X0.050000X-0.387500X-0.050000X0.387500X-0.050000X0.387500X0.050000X0*%
%ADD28RoundRect,0.140000X0.170000X-0.140000X0.170000X0.140000X-0.170000X0.140000X-0.170000X-0.140000X0*%
%ADD29R,1.150000X1.400000*%
%ADD30RoundRect,0.218750X-0.218750X-0.256250X0.218750X-0.256250X0.218750X0.256250X-0.218750X0.256250X0*%
%ADD31RoundRect,0.218750X-0.256250X0.218750X-0.256250X-0.218750X0.256250X-0.218750X0.256250X0.218750X0*%
%ADD32R,1.550000X1.300000*%
%ADD33RoundRect,0.140000X0.021213X-0.219203X0.219203X-0.021213X-0.021213X0.219203X-0.219203X0.021213X0*%
%ADD34R,1.100000X0.225000*%
%ADD35O,0.700000X0.200000*%
G04 APERTURE END LIST*
D10*
%TO.C,R5*%
X116810000Y-91000000D03*
X115790000Y-91000000D03*
%TD*%
D11*
%TO.C,U2*%
X120799999Y-91272399D03*
X120799999Y-90322399D03*
X120799999Y-89372399D03*
X118599999Y-89372399D03*
X118599999Y-91272399D03*
%TD*%
D12*
%TO.C,C1*%
X115820000Y-93000000D03*
X116780000Y-93000000D03*
%TD*%
D13*
%TO.C,R6*%
X158225000Y-107670000D03*
X158225000Y-106650000D03*
%TD*%
D14*
%TO.C,R7*%
X158225000Y-104190000D03*
X158225000Y-105210000D03*
%TD*%
D15*
%TO.C,C9*%
X163310000Y-102600000D03*
X162350000Y-102600000D03*
%TD*%
D16*
%TO.C,U9*%
X168519999Y-113704999D03*
X169019999Y-113704999D03*
X169519999Y-113704999D03*
X170019999Y-113704999D03*
X170519999Y-113704999D03*
X170519999Y-112654999D03*
X170019999Y-112654999D03*
X169519999Y-112654999D03*
X169019999Y-112654999D03*
X168519999Y-112654999D03*
%TD*%
D14*
%TO.C,R15*%
X173000000Y-95790000D03*
X173000000Y-96810000D03*
%TD*%
D17*
%TO.C,J9*%
X114838390Y-104149999D03*
X114838390Y-106649999D03*
X114838390Y-108649999D03*
X114838390Y-111149999D03*
%TD*%
D13*
%TO.C,R4*%
X156300000Y-118710000D03*
X156300000Y-117690000D03*
%TD*%
D12*
%TO.C,C8*%
X173720000Y-100700000D03*
X174680000Y-100700000D03*
%TD*%
D16*
%TO.C,U11*%
X163319999Y-112774999D03*
X163819999Y-112774999D03*
X164319999Y-112774999D03*
X164819999Y-112774999D03*
X165319999Y-112774999D03*
X165319999Y-111724999D03*
X164819999Y-111724999D03*
X164319999Y-111724999D03*
X163819999Y-111724999D03*
X163319999Y-111724999D03*
%TD*%
D18*
%TO.C,C11*%
X167460000Y-106180000D03*
X167460000Y-107140000D03*
%TD*%
D10*
%TO.C,R18*%
X176710000Y-102110000D03*
X175690000Y-102110000D03*
%TD*%
D19*
%TO.C,R3*%
X163290000Y-115450000D03*
X164310000Y-115450000D03*
%TD*%
D16*
%TO.C,U7*%
X160859999Y-89864999D03*
X160359999Y-89864999D03*
X159859999Y-89864999D03*
X159359999Y-89864999D03*
X158859999Y-89864999D03*
X158859999Y-90914999D03*
X159359999Y-90914999D03*
X159859999Y-90914999D03*
X160359999Y-90914999D03*
X160859999Y-90914999D03*
%TD*%
D20*
%TO.C,D2*%
X167025000Y-111250000D03*
X167995000Y-111250000D03*
%TD*%
D21*
%TO.C,U3*%
X172899999Y-113149999D03*
X175199999Y-113149999D03*
D22*
X175199999Y-106849999D03*
D21*
X177499999Y-113149999D03*
%TD*%
D23*
%TO.C,FLASH1*%
X177003841Y-96202081D03*
X177901866Y-97100106D03*
X178799892Y-97998132D03*
X179697917Y-98896157D03*
X184796157Y-93797917D03*
X183898132Y-92899892D03*
X183000106Y-92001866D03*
X182102081Y-91103841D03*
%TD*%
D24*
%TO.C,Q2*%
X163737500Y-118650000D03*
X163737500Y-116750000D03*
X161862500Y-117700000D03*
%TD*%
D25*
%TO.C,U4*%
X169257500Y-100792500D03*
X167982500Y-100792500D03*
X169257500Y-102067500D03*
X167982500Y-102067500D03*
D26*
X171220000Y-97992500D03*
X170820000Y-97992500D03*
X170420000Y-97992500D03*
X170020000Y-97992500D03*
X169620000Y-97992500D03*
X169220000Y-97992500D03*
X168820000Y-97992500D03*
X168420000Y-97992500D03*
X168020000Y-97992500D03*
X167620000Y-97992500D03*
X167220000Y-97992500D03*
X166820000Y-97992500D03*
X166420000Y-97992500D03*
X166020000Y-97992500D03*
D27*
X165182500Y-98830000D03*
X165182500Y-99230000D03*
X165182500Y-99630000D03*
X165182500Y-100030000D03*
X165182500Y-100430000D03*
X165182500Y-100830000D03*
X165182500Y-101230000D03*
X165182500Y-101630000D03*
X165182500Y-102030000D03*
X165182500Y-102430000D03*
X165182500Y-102830000D03*
X165182500Y-103230000D03*
X165182500Y-103630000D03*
X165182500Y-104030000D03*
D26*
X166020000Y-104867500D03*
X166420000Y-104867500D03*
X166820000Y-104867500D03*
X167220000Y-104867500D03*
X167620000Y-104867500D03*
X168020000Y-104867500D03*
X168420000Y-104867500D03*
X168820000Y-104867500D03*
X169220000Y-104867500D03*
X169620000Y-104867500D03*
X170020000Y-104867500D03*
X170420000Y-104867500D03*
X170820000Y-104867500D03*
X171220000Y-104867500D03*
D27*
X172057500Y-104030000D03*
X172057500Y-103630000D03*
X172057500Y-103230000D03*
X172057500Y-102830000D03*
X172057500Y-102430000D03*
X172057500Y-102030000D03*
X172057500Y-101630000D03*
X172057500Y-101230000D03*
X172057500Y-100830000D03*
X172057500Y-100430000D03*
X172057500Y-100030000D03*
X172057500Y-99630000D03*
X172057500Y-99230000D03*
X172057500Y-98830000D03*
%TD*%
D28*
%TO.C,R14*%
X174100000Y-96780000D03*
X174100000Y-95820000D03*
%TD*%
D19*
%TO.C,R21*%
X190900000Y-93000000D03*
X191920000Y-93000000D03*
%TD*%
D10*
%TO.C,R2*%
X162360000Y-114400000D03*
X161340000Y-114400000D03*
%TD*%
D19*
%TO.C,R8*%
X161340000Y-115450000D03*
X162360000Y-115450000D03*
%TD*%
D29*
%TO.C,Y1*%
X160624999Y-101924999D03*
X160624999Y-99724999D03*
X159024999Y-99724999D03*
X159024999Y-101924999D03*
%TD*%
D12*
%TO.C,C7*%
X176120000Y-105000000D03*
X177080000Y-105000000D03*
%TD*%
D16*
%TO.C,U1*%
X174459999Y-90409999D03*
X173959999Y-90409999D03*
X173459999Y-90409999D03*
X172959999Y-90409999D03*
X172459999Y-90409999D03*
X172459999Y-91459999D03*
X172959999Y-91459999D03*
X173459999Y-91459999D03*
X173959999Y-91459999D03*
X174459999Y-91459999D03*
%TD*%
D30*
%TO.C,D1*%
X179837500Y-114975000D03*
X181412500Y-114975000D03*
%TD*%
D19*
%TO.C,R10*%
X168020000Y-109860000D03*
X169040000Y-109860000D03*
%TD*%
D10*
%TO.C,R19*%
X176710000Y-103110000D03*
X175690000Y-103110000D03*
%TD*%
D28*
%TO.C,C15*%
X167400000Y-96780000D03*
X167400000Y-95820000D03*
%TD*%
D16*
%TO.C,U6*%
X143099999Y-89339999D03*
X142599999Y-89339999D03*
X142099999Y-89339999D03*
X141599999Y-89339999D03*
X141099999Y-89339999D03*
X141099999Y-90389999D03*
X141599999Y-90389999D03*
X142099999Y-90389999D03*
X142599999Y-90389999D03*
X143099999Y-90389999D03*
%TD*%
D19*
%TO.C,R22*%
X190990000Y-90400000D03*
X192010000Y-90400000D03*
%TD*%
D28*
%TO.C,C14*%
X171900000Y-96780000D03*
X171900000Y-95820000D03*
%TD*%
D24*
%TO.C,Q1*%
X159787500Y-118650000D03*
X159787500Y-116750000D03*
X157912500Y-117700000D03*
%TD*%
D16*
%TO.C,U5*%
X125299999Y-90274999D03*
X124799999Y-90274999D03*
X124299999Y-90274999D03*
X123799999Y-90274999D03*
X123299999Y-90274999D03*
X123299999Y-91324999D03*
X123799999Y-91324999D03*
X124299999Y-91324999D03*
X124799999Y-91324999D03*
X125299999Y-91324999D03*
%TD*%
D12*
%TO.C,C12*%
X173460000Y-104535062D03*
X174420000Y-104535062D03*
%TD*%
%TO.C,C10*%
X173520000Y-103500000D03*
X174480000Y-103500000D03*
%TD*%
D31*
%TO.C,D3*%
X187600000Y-93272500D03*
X187600000Y-94847500D03*
%TD*%
D32*
%TO.C,SW1*%
X182665657Y-118249999D03*
X190615657Y-118249999D03*
X190615657Y-120499999D03*
X182665657Y-122749999D03*
X190615657Y-122749999D03*
%TD*%
D33*
%TO.C,C5*%
X183260589Y-89939411D03*
X183939411Y-89260589D03*
%TD*%
D12*
%TO.C,C6*%
X179845000Y-116300000D03*
X180805000Y-116300000D03*
%TD*%
D16*
%TO.C,U8*%
X157249999Y-113694999D03*
X157749999Y-113694999D03*
X158249999Y-113694999D03*
X158749999Y-113694999D03*
X159249999Y-113694999D03*
X159249999Y-112644999D03*
X158749999Y-112644999D03*
X158249999Y-112644999D03*
X157749999Y-112644999D03*
X157249999Y-112644999D03*
%TD*%
D15*
%TO.C,C4*%
X160305000Y-98175000D03*
X159345000Y-98175000D03*
%TD*%
D12*
%TO.C,C3*%
X159345000Y-103450000D03*
X160305000Y-103450000D03*
%TD*%
D10*
%TO.C,R16*%
X163430000Y-100650000D03*
X162410000Y-100650000D03*
%TD*%
D34*
%TO.C,J15*%
X193393336Y-95223999D03*
X193393336Y-94423999D03*
X193393336Y-93123999D03*
X193393336Y-92123999D03*
X193393336Y-91623999D03*
X193393336Y-93623999D03*
X193393336Y-89323999D03*
X193393336Y-88523999D03*
X193393336Y-88823999D03*
X193393336Y-89623999D03*
X193393336Y-90123999D03*
X193393336Y-91123999D03*
X193393336Y-92623999D03*
X193393336Y-90623999D03*
X193393336Y-94123999D03*
X193393336Y-94923999D03*
%TD*%
D35*
%TO.C,U10*%
X178074999Y-101399999D03*
X178074999Y-101899999D03*
X178074999Y-102399999D03*
X178074999Y-102899999D03*
X178074999Y-103399999D03*
X179124999Y-103399999D03*
X179124999Y-102899999D03*
X179124999Y-102399999D03*
X179124999Y-101899999D03*
X179124999Y-101399999D03*
%TD*%
D15*
%TO.C,C17*%
X163410000Y-101630000D03*
X162450000Y-101630000D03*
%TD*%
D10*
%TO.C,R9*%
X187600000Y-96190000D03*
X186580000Y-96190000D03*
%TD*%
D12*
%TO.C,C13*%
X173420000Y-101700000D03*
X174380000Y-101700000D03*
%TD*%
D18*
%TO.C,C16*%
X171100000Y-106120000D03*
X171100000Y-107080000D03*
%TD*%
M02*
