%TF.GenerationSoftware,KiCad,Pcbnew,(7.0.0-0)*%
%TF.CreationDate,2023-09-11T01:39:21-06:00*%
%TF.ProjectId,ReflexFightingBoard,5265666c-6578-4466-9967-6874696e6742,rev?*%
%TF.SameCoordinates,Original*%
%TF.FileFunction,Soldermask,Top*%
%TF.FilePolarity,Negative*%
%FSLAX46Y46*%
G04 Gerber Fmt 4.6, Leading zero omitted, Abs format (unit mm)*
G04 Created by KiCad (PCBNEW (7.0.0-0)) date 2023-09-11 01:39:21*
%MOMM*%
%LPD*%
G01*
G04 APERTURE LIST*
G04 Aperture macros list*
%AMRoundRect*
0 Rectangle with rounded corners*
0 $1 Rounding radius*
0 $2 $3 $4 $5 $6 $7 $8 $9 X,Y pos of 4 corners*
0 Add a 4 corners polygon primitive as box body*
4,1,4,$2,$3,$4,$5,$6,$7,$8,$9,$2,$3,0*
0 Add four circle primitives for the rounded corners*
1,1,$1+$1,$2,$3*
1,1,$1+$1,$4,$5*
1,1,$1+$1,$6,$7*
1,1,$1+$1,$8,$9*
0 Add four rect primitives between the rounded corners*
20,1,$1+$1,$2,$3,$4,$5,0*
20,1,$1+$1,$4,$5,$6,$7,0*
20,1,$1+$1,$6,$7,$8,$9,0*
20,1,$1+$1,$8,$9,$2,$3,0*%
%AMRotRect*
0 Rectangle, with rotation*
0 The origin of the aperture is its center*
0 $1 length*
0 $2 width*
0 $3 Rotation angle, in degrees counterclockwise*
0 Add horizontal line*
21,1,$1,$2,0,0,$3*%
G04 Aperture macros list end*
%ADD10C,0.010000*%
%ADD11RoundRect,0.135000X0.135000X0.185000X-0.135000X0.185000X-0.135000X-0.185000X0.135000X-0.185000X0*%
%ADD12R,1.060000X0.650000*%
%ADD13RoundRect,0.140000X-0.140000X-0.170000X0.140000X-0.170000X0.140000X0.170000X-0.140000X0.170000X0*%
%ADD14RoundRect,0.135000X0.185000X-0.135000X0.185000X0.135000X-0.185000X0.135000X-0.185000X-0.135000X0*%
%ADD15RoundRect,0.135000X-0.185000X0.135000X-0.185000X-0.135000X0.185000X-0.135000X0.185000X0.135000X0*%
%ADD16R,1.700000X1.700000*%
%ADD17O,1.700000X1.700000*%
%ADD18RoundRect,0.249999X-0.625001X0.350001X-0.625001X-0.350001X0.625001X-0.350001X0.625001X0.350001X0*%
%ADD19O,1.750000X1.200000*%
%ADD20RoundRect,0.250000X0.625000X-0.350000X0.625000X0.350000X-0.625000X0.350000X-0.625000X-0.350000X0*%
%ADD21R,2.300000X2.300000*%
%ADD22C,2.300000*%
%ADD23C,7.000000*%
%ADD24RoundRect,0.140000X0.140000X0.170000X-0.140000X0.170000X-0.140000X-0.170000X0.140000X-0.170000X0*%
%ADD25O,0.200000X0.700000*%
%ADD26C,1.300000*%
%ADD27R,2.000000X1.000000*%
%ADD28O,2.610000X1.600000*%
%ADD29RoundRect,0.250000X-0.350000X-0.625000X0.350000X-0.625000X0.350000X0.625000X-0.350000X0.625000X0*%
%ADD30O,1.200000X1.750000*%
%ADD31RoundRect,0.140000X-0.170000X0.140000X-0.170000X-0.140000X0.170000X-0.140000X0.170000X0.140000X0*%
%ADD32RoundRect,0.135000X-0.135000X-0.185000X0.135000X-0.185000X0.135000X0.185000X-0.135000X0.185000X0*%
%ADD33R,1.600000X1.600000*%
%ADD34C,1.600000*%
%ADD35C,4.000000*%
%ADD36RoundRect,0.147500X-0.147500X-0.172500X0.147500X-0.172500X0.147500X0.172500X-0.147500X0.172500X0*%
%ADD37R,1.500000X2.000000*%
%ADD38R,3.800000X2.000000*%
%ADD39RotRect,1.610000X0.580000X45.000000*%
%ADD40RoundRect,0.150000X0.587500X0.150000X-0.587500X0.150000X-0.587500X-0.150000X0.587500X-0.150000X0*%
%ADD41RoundRect,0.050000X-0.050000X0.387500X-0.050000X-0.387500X0.050000X-0.387500X0.050000X0.387500X0*%
%ADD42RoundRect,0.050000X-0.387500X0.050000X-0.387500X-0.050000X0.387500X-0.050000X0.387500X0.050000X0*%
%ADD43RoundRect,0.144000X-1.456000X1.456000X-1.456000X-1.456000X1.456000X-1.456000X1.456000X1.456000X0*%
%ADD44RoundRect,0.140000X0.170000X-0.140000X0.170000X0.140000X-0.170000X0.140000X-0.170000X-0.140000X0*%
%ADD45R,1.150000X1.400000*%
%ADD46RoundRect,0.218750X-0.218750X-0.256250X0.218750X-0.256250X0.218750X0.256250X-0.218750X0.256250X0*%
%ADD47RoundRect,0.218750X-0.256250X0.218750X-0.256250X-0.218750X0.256250X-0.218750X0.256250X0.218750X0*%
%ADD48R,1.550000X1.300000*%
%ADD49RoundRect,0.140000X0.021213X-0.219203X0.219203X-0.021213X-0.021213X0.219203X-0.219203X0.021213X0*%
%ADD50C,1.200000*%
%ADD51RoundRect,0.250000X-0.725000X0.600000X-0.725000X-0.600000X0.725000X-0.600000X0.725000X0.600000X0*%
%ADD52O,1.950000X1.700000*%
%ADD53C,0.650000*%
%ADD54R,1.100000X0.225000*%
%ADD55O,2.100000X1.000000*%
%ADD56O,1.800000X1.000000*%
%ADD57O,0.700000X0.200000*%
G04 APERTURE END LIST*
%TO.C,Ref\u002A\u002A*%
G36*
X127162316Y-109089000D02*
G01*
X128580483Y-109089000D01*
X128580483Y-109808667D01*
X126463816Y-109808667D01*
X126463816Y-106273834D01*
X127162316Y-106273834D01*
X127162316Y-109089000D01*
G37*
D10*
X127162316Y-109089000D02*
X128580483Y-109089000D01*
X128580483Y-109808667D01*
X126463816Y-109808667D01*
X126463816Y-106273834D01*
X127162316Y-106273834D01*
X127162316Y-109089000D01*
G36*
X126156900Y-106284417D02*
G01*
X126156900Y-106982917D01*
X124791650Y-106994087D01*
X124791650Y-107692000D01*
X125934650Y-107692000D01*
X125934650Y-108390500D01*
X124791650Y-108390500D01*
X124791650Y-109808667D01*
X124093150Y-109808667D01*
X124093150Y-106273431D01*
X126156900Y-106284417D01*
G37*
X126156900Y-106284417D02*
X126156900Y-106982917D01*
X124791650Y-106994087D01*
X124791650Y-107692000D01*
X125934650Y-107692000D01*
X125934650Y-108390500D01*
X124791650Y-108390500D01*
X124791650Y-109808667D01*
X124093150Y-109808667D01*
X124093150Y-106273431D01*
X126156900Y-106284417D01*
G36*
X122764941Y-106278922D02*
G01*
X123786233Y-106284417D01*
X123786233Y-106982917D01*
X123113668Y-106988507D01*
X122441104Y-106994096D01*
X122446918Y-107337757D01*
X122452733Y-107681417D01*
X123563983Y-107692703D01*
X123563983Y-108389797D01*
X123008358Y-108395440D01*
X122452733Y-108401084D01*
X122452733Y-109078417D01*
X123119483Y-109089000D01*
X123786233Y-109099584D01*
X123786233Y-109798084D01*
X122764941Y-109803578D01*
X121743650Y-109809073D01*
X121743650Y-106273427D01*
X122764941Y-106278922D01*
G37*
X122764941Y-106278922D02*
X123786233Y-106284417D01*
X123786233Y-106982917D01*
X123113668Y-106988507D01*
X122441104Y-106994096D01*
X122446918Y-107337757D01*
X122452733Y-107681417D01*
X123563983Y-107692703D01*
X123563983Y-108389797D01*
X123008358Y-108395440D01*
X122452733Y-108401084D01*
X122452733Y-109078417D01*
X123119483Y-109089000D01*
X123786233Y-109099584D01*
X123786233Y-109798084D01*
X122764941Y-109803578D01*
X121743650Y-109809073D01*
X121743650Y-106273427D01*
X122764941Y-106278922D01*
G36*
X130929983Y-106993500D02*
G01*
X129596483Y-106993500D01*
X129596483Y-107692000D01*
X130697150Y-107692000D01*
X130697150Y-108390500D01*
X129596483Y-108390500D01*
X129596483Y-109089000D01*
X130929983Y-109089000D01*
X130929983Y-109808667D01*
X129913319Y-109808667D01*
X129668765Y-109808439D01*
X129463628Y-109807704D01*
X129294993Y-109806387D01*
X129159945Y-109804413D01*
X129055570Y-109801707D01*
X128978954Y-109798195D01*
X128927181Y-109793800D01*
X128897337Y-109788447D01*
X128886559Y-109782209D01*
X128885069Y-109757418D01*
X128883777Y-109693488D01*
X128882689Y-109593611D01*
X128881815Y-109460982D01*
X128881164Y-109298792D01*
X128880743Y-109110237D01*
X128880562Y-108898508D01*
X128880627Y-108666799D01*
X128880949Y-108418304D01*
X128881535Y-108156215D01*
X128881932Y-108020084D01*
X128887400Y-106284417D01*
X129908691Y-106278922D01*
X130929983Y-106273427D01*
X130929983Y-106993500D01*
G37*
X130929983Y-106993500D02*
X129596483Y-106993500D01*
X129596483Y-107692000D01*
X130697150Y-107692000D01*
X130697150Y-108390500D01*
X129596483Y-108390500D01*
X129596483Y-109089000D01*
X130929983Y-109089000D01*
X130929983Y-109808667D01*
X129913319Y-109808667D01*
X129668765Y-109808439D01*
X129463628Y-109807704D01*
X129294993Y-109806387D01*
X129159945Y-109804413D01*
X129055570Y-109801707D01*
X128978954Y-109798195D01*
X128927181Y-109793800D01*
X128897337Y-109788447D01*
X128886559Y-109782209D01*
X128885069Y-109757418D01*
X128883777Y-109693488D01*
X128882689Y-109593611D01*
X128881815Y-109460982D01*
X128881164Y-109298792D01*
X128880743Y-109110237D01*
X128880562Y-108898508D01*
X128880627Y-108666799D01*
X128880949Y-108418304D01*
X128881535Y-108156215D01*
X128881932Y-108020084D01*
X128887400Y-106284417D01*
X129908691Y-106278922D01*
X130929983Y-106273427D01*
X130929983Y-106993500D01*
G36*
X119315812Y-106276614D02*
G01*
X119498370Y-106277559D01*
X119576970Y-106278220D01*
X120441900Y-106286296D01*
X120583123Y-106341995D01*
X120772628Y-106431880D01*
X120930150Y-106541421D01*
X121063835Y-106676801D01*
X121119117Y-106748822D01*
X121227302Y-106936123D01*
X121297252Y-107139182D01*
X121327802Y-107353315D01*
X121319988Y-107557060D01*
X121280103Y-107736795D01*
X121208499Y-107912359D01*
X121110709Y-108074863D01*
X120992265Y-108215423D01*
X120858701Y-108325153D01*
X120830996Y-108342420D01*
X120789558Y-108370644D01*
X120770177Y-108391226D01*
X120769983Y-108392460D01*
X120779743Y-108415308D01*
X120806359Y-108467392D01*
X120845828Y-108541105D01*
X120894152Y-108628843D01*
X120896983Y-108633917D01*
X120945630Y-108721902D01*
X120985664Y-108795945D01*
X121013099Y-108848553D01*
X121023947Y-108872233D01*
X121023983Y-108872566D01*
X121033811Y-108894762D01*
X121060068Y-108944510D01*
X121097914Y-109012762D01*
X121115997Y-109044587D01*
X121166881Y-109135035D01*
X121227843Y-109245637D01*
X121289352Y-109359027D01*
X121320386Y-109417084D01*
X121375706Y-109520538D01*
X121433383Y-109627169D01*
X121484972Y-109721418D01*
X121509930Y-109766334D01*
X121549580Y-109838500D01*
X121581722Y-109899693D01*
X121599885Y-109937561D01*
X121600592Y-109939347D01*
X121619684Y-109978034D01*
X121652252Y-110034639D01*
X121668549Y-110061056D01*
X121723014Y-110147334D01*
X134733849Y-110147334D01*
X134821583Y-110272406D01*
X134864775Y-110336993D01*
X134896098Y-110389577D01*
X134909239Y-110419495D01*
X134909316Y-110420573D01*
X134888468Y-110422346D01*
X134827195Y-110424057D01*
X134727407Y-110425706D01*
X134591014Y-110427292D01*
X134419923Y-110428813D01*
X134216045Y-110430270D01*
X133981289Y-110431660D01*
X133717563Y-110432984D01*
X133426776Y-110434239D01*
X133110838Y-110435425D01*
X132771659Y-110436542D01*
X132411146Y-110437588D01*
X132031210Y-110438562D01*
X131633758Y-110439463D01*
X131220702Y-110440291D01*
X130793948Y-110441043D01*
X130355408Y-110441721D01*
X129906989Y-110442322D01*
X129450601Y-110442845D01*
X128988153Y-110443290D01*
X128521554Y-110443656D01*
X128052713Y-110443941D01*
X127583540Y-110444145D01*
X127115943Y-110444267D01*
X126651832Y-110444305D01*
X126193115Y-110444260D01*
X125741703Y-110444129D01*
X125299503Y-110443913D01*
X124868426Y-110443609D01*
X124450379Y-110443218D01*
X124047274Y-110442738D01*
X123661017Y-110442168D01*
X123293519Y-110441507D01*
X122946689Y-110440754D01*
X122622435Y-110439909D01*
X122322668Y-110438970D01*
X122049296Y-110437937D01*
X121804227Y-110436808D01*
X121589372Y-110435583D01*
X121406640Y-110434261D01*
X121257939Y-110432840D01*
X121145179Y-110431319D01*
X121070268Y-110429699D01*
X121035117Y-110427977D01*
X121032645Y-110427468D01*
X121019344Y-110407419D01*
X120987364Y-110354110D01*
X120938772Y-110271180D01*
X120875636Y-110162270D01*
X120800020Y-110031022D01*
X120713993Y-109881075D01*
X120619620Y-109716071D01*
X120518968Y-109539651D01*
X120414105Y-109355455D01*
X120307096Y-109167123D01*
X120200008Y-108978297D01*
X120094908Y-108792618D01*
X119993863Y-108613726D01*
X119898939Y-108445262D01*
X119812203Y-108290866D01*
X119735721Y-108154180D01*
X119671560Y-108038844D01*
X119621787Y-107948499D01*
X119588469Y-107886786D01*
X119573671Y-107857345D01*
X119573533Y-107856992D01*
X119572425Y-107844820D01*
X119583257Y-107835637D01*
X119611311Y-107828875D01*
X119661872Y-107823966D01*
X119740219Y-107820343D01*
X119851638Y-107817438D01*
X119960612Y-107815379D01*
X120100140Y-107812799D01*
X120204156Y-107809993D01*
X120279477Y-107806042D01*
X120332919Y-107800024D01*
X120371299Y-107791019D01*
X120401433Y-107778107D01*
X120430137Y-107760367D01*
X120445335Y-107749918D01*
X120536020Y-107663949D01*
X120594894Y-107559357D01*
X120622055Y-107444268D01*
X120617597Y-107326809D01*
X120581618Y-107215105D01*
X120514212Y-107117283D01*
X120437117Y-107054100D01*
X120413385Y-107039954D01*
X120389057Y-107028668D01*
X120359143Y-107019822D01*
X120318653Y-107013002D01*
X120262596Y-107007789D01*
X120185982Y-107003766D01*
X120083820Y-107000516D01*
X119951122Y-106997623D01*
X119782895Y-106994668D01*
X119712106Y-106993500D01*
X119066978Y-106982917D01*
X118873461Y-106644250D01*
X118813032Y-106536130D01*
X118762061Y-106440349D01*
X118723570Y-106362978D01*
X118700581Y-106310085D01*
X118695992Y-106287863D01*
X118719972Y-106284222D01*
X118781738Y-106281221D01*
X118876748Y-106278910D01*
X119000459Y-106277339D01*
X119148328Y-106276557D01*
X119315812Y-106276614D01*
G37*
X119315812Y-106276614D02*
X119498370Y-106277559D01*
X119576970Y-106278220D01*
X120441900Y-106286296D01*
X120583123Y-106341995D01*
X120772628Y-106431880D01*
X120930150Y-106541421D01*
X121063835Y-106676801D01*
X121119117Y-106748822D01*
X121227302Y-106936123D01*
X121297252Y-107139182D01*
X121327802Y-107353315D01*
X121319988Y-107557060D01*
X121280103Y-107736795D01*
X121208499Y-107912359D01*
X121110709Y-108074863D01*
X120992265Y-108215423D01*
X120858701Y-108325153D01*
X120830996Y-108342420D01*
X120789558Y-108370644D01*
X120770177Y-108391226D01*
X120769983Y-108392460D01*
X120779743Y-108415308D01*
X120806359Y-108467392D01*
X120845828Y-108541105D01*
X120894152Y-108628843D01*
X120896983Y-108633917D01*
X120945630Y-108721902D01*
X120985664Y-108795945D01*
X121013099Y-108848553D01*
X121023947Y-108872233D01*
X121023983Y-108872566D01*
X121033811Y-108894762D01*
X121060068Y-108944510D01*
X121097914Y-109012762D01*
X121115997Y-109044587D01*
X121166881Y-109135035D01*
X121227843Y-109245637D01*
X121289352Y-109359027D01*
X121320386Y-109417084D01*
X121375706Y-109520538D01*
X121433383Y-109627169D01*
X121484972Y-109721418D01*
X121509930Y-109766334D01*
X121549580Y-109838500D01*
X121581722Y-109899693D01*
X121599885Y-109937561D01*
X121600592Y-109939347D01*
X121619684Y-109978034D01*
X121652252Y-110034639D01*
X121668549Y-110061056D01*
X121723014Y-110147334D01*
X134733849Y-110147334D01*
X134821583Y-110272406D01*
X134864775Y-110336993D01*
X134896098Y-110389577D01*
X134909239Y-110419495D01*
X134909316Y-110420573D01*
X134888468Y-110422346D01*
X134827195Y-110424057D01*
X134727407Y-110425706D01*
X134591014Y-110427292D01*
X134419923Y-110428813D01*
X134216045Y-110430270D01*
X133981289Y-110431660D01*
X133717563Y-110432984D01*
X133426776Y-110434239D01*
X133110838Y-110435425D01*
X132771659Y-110436542D01*
X132411146Y-110437588D01*
X132031210Y-110438562D01*
X131633758Y-110439463D01*
X131220702Y-110440291D01*
X130793948Y-110441043D01*
X130355408Y-110441721D01*
X129906989Y-110442322D01*
X129450601Y-110442845D01*
X128988153Y-110443290D01*
X128521554Y-110443656D01*
X128052713Y-110443941D01*
X127583540Y-110444145D01*
X127115943Y-110444267D01*
X126651832Y-110444305D01*
X126193115Y-110444260D01*
X125741703Y-110444129D01*
X125299503Y-110443913D01*
X124868426Y-110443609D01*
X124450379Y-110443218D01*
X124047274Y-110442738D01*
X123661017Y-110442168D01*
X123293519Y-110441507D01*
X122946689Y-110440754D01*
X122622435Y-110439909D01*
X122322668Y-110438970D01*
X122049296Y-110437937D01*
X121804227Y-110436808D01*
X121589372Y-110435583D01*
X121406640Y-110434261D01*
X121257939Y-110432840D01*
X121145179Y-110431319D01*
X121070268Y-110429699D01*
X121035117Y-110427977D01*
X121032645Y-110427468D01*
X121019344Y-110407419D01*
X120987364Y-110354110D01*
X120938772Y-110271180D01*
X120875636Y-110162270D01*
X120800020Y-110031022D01*
X120713993Y-109881075D01*
X120619620Y-109716071D01*
X120518968Y-109539651D01*
X120414105Y-109355455D01*
X120307096Y-109167123D01*
X120200008Y-108978297D01*
X120094908Y-108792618D01*
X119993863Y-108613726D01*
X119898939Y-108445262D01*
X119812203Y-108290866D01*
X119735721Y-108154180D01*
X119671560Y-108038844D01*
X119621787Y-107948499D01*
X119588469Y-107886786D01*
X119573671Y-107857345D01*
X119573533Y-107856992D01*
X119572425Y-107844820D01*
X119583257Y-107835637D01*
X119611311Y-107828875D01*
X119661872Y-107823966D01*
X119740219Y-107820343D01*
X119851638Y-107817438D01*
X119960612Y-107815379D01*
X120100140Y-107812799D01*
X120204156Y-107809993D01*
X120279477Y-107806042D01*
X120332919Y-107800024D01*
X120371299Y-107791019D01*
X120401433Y-107778107D01*
X120430137Y-107760367D01*
X120445335Y-107749918D01*
X120536020Y-107663949D01*
X120594894Y-107559357D01*
X120622055Y-107444268D01*
X120617597Y-107326809D01*
X120581618Y-107215105D01*
X120514212Y-107117283D01*
X120437117Y-107054100D01*
X120413385Y-107039954D01*
X120389057Y-107028668D01*
X120359143Y-107019822D01*
X120318653Y-107013002D01*
X120262596Y-107007789D01*
X120185982Y-107003766D01*
X120083820Y-107000516D01*
X119951122Y-106997623D01*
X119782895Y-106994668D01*
X119712106Y-106993500D01*
X119066978Y-106982917D01*
X118873461Y-106644250D01*
X118813032Y-106536130D01*
X118762061Y-106440349D01*
X118723570Y-106362978D01*
X118700581Y-106310085D01*
X118695992Y-106287863D01*
X118719972Y-106284222D01*
X118781738Y-106281221D01*
X118876748Y-106278910D01*
X119000459Y-106277339D01*
X119148328Y-106276557D01*
X119315812Y-106276614D01*
G36*
X134877011Y-105718209D02*
G01*
X134847670Y-105762244D01*
X134797824Y-105834946D01*
X134731536Y-105930509D01*
X134652873Y-106043126D01*
X134565899Y-106166994D01*
X134474681Y-106296304D01*
X134383282Y-106425252D01*
X134305837Y-106533947D01*
X134223706Y-106649411D01*
X134131595Y-106779732D01*
X134041771Y-106907518D01*
X133977754Y-106999174D01*
X133906734Y-107100675D01*
X133820330Y-107223225D01*
X133727937Y-107353548D01*
X133638952Y-107478369D01*
X133610739Y-107517758D01*
X133496466Y-107677890D01*
X133406247Y-107806229D01*
X133338704Y-107904825D01*
X133292458Y-107975725D01*
X133266131Y-108020981D01*
X133258316Y-108041974D01*
X133271028Y-108069198D01*
X133308994Y-108129833D01*
X133371960Y-108223503D01*
X133459670Y-108349833D01*
X133571870Y-108508449D01*
X133649371Y-108616913D01*
X133719195Y-108714546D01*
X133798786Y-108826187D01*
X133883894Y-108945836D01*
X133970268Y-109067497D01*
X134053659Y-109185172D01*
X134129816Y-109292862D01*
X134194490Y-109384571D01*
X134243431Y-109454301D01*
X134272388Y-109496053D01*
X134273743Y-109498047D01*
X134302779Y-109539707D01*
X134346266Y-109600768D01*
X134384868Y-109654305D01*
X134426306Y-109714652D01*
X134455201Y-109762879D01*
X134464816Y-109786596D01*
X134443773Y-109795322D01*
X134381031Y-109801889D01*
X134277173Y-109806268D01*
X134132778Y-109808428D01*
X134052891Y-109808667D01*
X133909682Y-109809201D01*
X133801525Y-109808734D01*
X133721189Y-109804165D01*
X133661445Y-109792393D01*
X133615063Y-109770314D01*
X133574813Y-109734827D01*
X133533465Y-109682830D01*
X133483790Y-109611221D01*
X133438233Y-109544950D01*
X133360007Y-109433129D01*
X133275483Y-109313218D01*
X133188456Y-109190505D01*
X133102718Y-109070277D01*
X133022063Y-108957823D01*
X132950285Y-108858430D01*
X132891177Y-108777386D01*
X132848533Y-108719979D01*
X132826145Y-108691496D01*
X132825353Y-108690636D01*
X132806559Y-108681322D01*
X132782980Y-108695726D01*
X132748323Y-108739080D01*
X132723500Y-108775303D01*
X132683062Y-108834677D01*
X132625046Y-108918361D01*
X132556513Y-109016238D01*
X132484522Y-109118191D01*
X132467674Y-109141917D01*
X132389953Y-109251465D01*
X132308179Y-109367107D01*
X132231581Y-109475772D01*
X132169385Y-109564390D01*
X132164162Y-109571862D01*
X132109186Y-109649629D01*
X132060752Y-109716480D01*
X132025537Y-109763283D01*
X132013263Y-109778237D01*
X131995401Y-109789164D01*
X131961189Y-109797257D01*
X131905312Y-109802885D01*
X131822453Y-109806416D01*
X131707298Y-109808218D01*
X131574054Y-109808667D01*
X131416642Y-109807755D01*
X131299183Y-109804930D01*
X131219331Y-109800055D01*
X131174745Y-109792998D01*
X131162816Y-109784982D01*
X131174468Y-109760136D01*
X131206537Y-109707642D01*
X131254694Y-109634200D01*
X131314612Y-109546509D01*
X131344019Y-109504524D01*
X131407524Y-109414511D01*
X131489611Y-109298123D01*
X131584477Y-109163589D01*
X131686320Y-109019139D01*
X131789337Y-108873003D01*
X131860881Y-108771500D01*
X131954279Y-108639013D01*
X132044407Y-108511222D01*
X132126970Y-108394212D01*
X132197675Y-108294065D01*
X132252229Y-108216865D01*
X132284387Y-108171444D01*
X132326051Y-108107396D01*
X132353367Y-108054864D01*
X132360883Y-108024470D01*
X132360448Y-108023277D01*
X132343154Y-107995505D01*
X132307748Y-107943484D01*
X132261049Y-107877179D01*
X132247864Y-107858780D01*
X132184851Y-107770757D01*
X132104302Y-107657616D01*
X132012977Y-107528908D01*
X131917638Y-107394182D01*
X131825045Y-107262988D01*
X131741959Y-107144876D01*
X131695222Y-107078167D01*
X131638495Y-106997610D01*
X131568659Y-106899305D01*
X131497466Y-106799768D01*
X131469337Y-106760667D01*
X131364572Y-106614583D01*
X131278042Y-106492308D01*
X131211337Y-106396150D01*
X131166049Y-106328411D01*
X131143766Y-106291399D01*
X131141650Y-106285631D01*
X131161758Y-106282039D01*
X131217851Y-106278888D01*
X131303581Y-106276355D01*
X131412600Y-106274618D01*
X131538561Y-106273854D01*
X131563471Y-106273834D01*
X131713632Y-106274390D01*
X131826725Y-106276295D01*
X131908003Y-106279904D01*
X131962721Y-106285574D01*
X131996132Y-106293658D01*
X132013263Y-106304264D01*
X132036916Y-106334033D01*
X132077932Y-106389516D01*
X132129634Y-106461583D01*
X132164162Y-106510639D01*
X132224349Y-106596448D01*
X132299890Y-106703651D01*
X132381557Y-106819179D01*
X132460122Y-106929959D01*
X132467674Y-106940584D01*
X132539329Y-107041841D01*
X132609089Y-107141253D01*
X132669939Y-107228767D01*
X132714860Y-107294327D01*
X132722512Y-107305709D01*
X132771141Y-107374252D01*
X132804201Y-107408707D01*
X132826158Y-107412276D01*
X132840651Y-107390375D01*
X132855766Y-107365243D01*
X132891425Y-107311813D01*
X132943455Y-107236159D01*
X133007686Y-107144354D01*
X133070458Y-107055775D01*
X133151046Y-106942441D01*
X133231940Y-106828222D01*
X133306285Y-106722831D01*
X133367224Y-106635977D01*
X133395900Y-106594785D01*
X133451131Y-106515541D01*
X133521614Y-106415166D01*
X133597981Y-106306968D01*
X133665775Y-106211406D01*
X133726236Y-106125571D01*
X133776652Y-106052340D01*
X133812477Y-105998446D01*
X133829164Y-105970617D01*
X133829816Y-105968605D01*
X133808898Y-105967695D01*
X133747136Y-105966802D01*
X133646021Y-105965927D01*
X133507042Y-105965072D01*
X133331690Y-105964241D01*
X133121454Y-105963435D01*
X132877824Y-105962657D01*
X132602291Y-105961909D01*
X132296343Y-105961194D01*
X131961472Y-105960515D01*
X131599166Y-105959874D01*
X131210917Y-105959272D01*
X130798214Y-105958714D01*
X130362546Y-105958200D01*
X129905404Y-105957734D01*
X129428278Y-105957319D01*
X128932657Y-105956955D01*
X128420032Y-105956647D01*
X127891892Y-105956396D01*
X127349728Y-105956205D01*
X126795029Y-105956076D01*
X126229285Y-105956012D01*
X126172775Y-105956009D01*
X125605762Y-105955943D01*
X125049529Y-105955794D01*
X124505572Y-105955565D01*
X123975386Y-105955260D01*
X123460468Y-105954882D01*
X122962313Y-105954434D01*
X122482418Y-105953919D01*
X122022278Y-105953339D01*
X121583391Y-105952699D01*
X121167251Y-105952001D01*
X120775355Y-105951248D01*
X120409199Y-105950444D01*
X120070280Y-105949591D01*
X119760092Y-105948692D01*
X119480132Y-105947752D01*
X119231897Y-105946772D01*
X119016882Y-105945755D01*
X118836583Y-105944706D01*
X118692497Y-105943627D01*
X118586119Y-105942521D01*
X118518946Y-105941391D01*
X118492473Y-105940240D01*
X118492136Y-105940134D01*
X118471298Y-105915485D01*
X118438676Y-105866302D01*
X118401562Y-105804994D01*
X118367248Y-105743970D01*
X118343029Y-105695639D01*
X118335816Y-105674164D01*
X118356744Y-105673156D01*
X118418574Y-105672166D01*
X118519872Y-105671198D01*
X118659208Y-105670253D01*
X118835150Y-105669334D01*
X119046264Y-105668443D01*
X119291120Y-105667583D01*
X119568286Y-105666756D01*
X119876329Y-105665965D01*
X120213817Y-105665211D01*
X120579318Y-105664499D01*
X120971401Y-105663829D01*
X121388634Y-105663205D01*
X121829584Y-105662629D01*
X122292819Y-105662103D01*
X122776907Y-105661629D01*
X123280417Y-105661211D01*
X123801917Y-105660851D01*
X124339974Y-105660551D01*
X124893156Y-105660313D01*
X125460032Y-105660141D01*
X126039169Y-105660035D01*
X126625001Y-105660000D01*
X134914185Y-105660000D01*
X134877011Y-105718209D01*
G37*
X134877011Y-105718209D02*
X134847670Y-105762244D01*
X134797824Y-105834946D01*
X134731536Y-105930509D01*
X134652873Y-106043126D01*
X134565899Y-106166994D01*
X134474681Y-106296304D01*
X134383282Y-106425252D01*
X134305837Y-106533947D01*
X134223706Y-106649411D01*
X134131595Y-106779732D01*
X134041771Y-106907518D01*
X133977754Y-106999174D01*
X133906734Y-107100675D01*
X133820330Y-107223225D01*
X133727937Y-107353548D01*
X133638952Y-107478369D01*
X133610739Y-107517758D01*
X133496466Y-107677890D01*
X133406247Y-107806229D01*
X133338704Y-107904825D01*
X133292458Y-107975725D01*
X133266131Y-108020981D01*
X133258316Y-108041974D01*
X133271028Y-108069198D01*
X133308994Y-108129833D01*
X133371960Y-108223503D01*
X133459670Y-108349833D01*
X133571870Y-108508449D01*
X133649371Y-108616913D01*
X133719195Y-108714546D01*
X133798786Y-108826187D01*
X133883894Y-108945836D01*
X133970268Y-109067497D01*
X134053659Y-109185172D01*
X134129816Y-109292862D01*
X134194490Y-109384571D01*
X134243431Y-109454301D01*
X134272388Y-109496053D01*
X134273743Y-109498047D01*
X134302779Y-109539707D01*
X134346266Y-109600768D01*
X134384868Y-109654305D01*
X134426306Y-109714652D01*
X134455201Y-109762879D01*
X134464816Y-109786596D01*
X134443773Y-109795322D01*
X134381031Y-109801889D01*
X134277173Y-109806268D01*
X134132778Y-109808428D01*
X134052891Y-109808667D01*
X133909682Y-109809201D01*
X133801525Y-109808734D01*
X133721189Y-109804165D01*
X133661445Y-109792393D01*
X133615063Y-109770314D01*
X133574813Y-109734827D01*
X133533465Y-109682830D01*
X133483790Y-109611221D01*
X133438233Y-109544950D01*
X133360007Y-109433129D01*
X133275483Y-109313218D01*
X133188456Y-109190505D01*
X133102718Y-109070277D01*
X133022063Y-108957823D01*
X132950285Y-108858430D01*
X132891177Y-108777386D01*
X132848533Y-108719979D01*
X132826145Y-108691496D01*
X132825353Y-108690636D01*
X132806559Y-108681322D01*
X132782980Y-108695726D01*
X132748323Y-108739080D01*
X132723500Y-108775303D01*
X132683062Y-108834677D01*
X132625046Y-108918361D01*
X132556513Y-109016238D01*
X132484522Y-109118191D01*
X132467674Y-109141917D01*
X132389953Y-109251465D01*
X132308179Y-109367107D01*
X132231581Y-109475772D01*
X132169385Y-109564390D01*
X132164162Y-109571862D01*
X132109186Y-109649629D01*
X132060752Y-109716480D01*
X132025537Y-109763283D01*
X132013263Y-109778237D01*
X131995401Y-109789164D01*
X131961189Y-109797257D01*
X131905312Y-109802885D01*
X131822453Y-109806416D01*
X131707298Y-109808218D01*
X131574054Y-109808667D01*
X131416642Y-109807755D01*
X131299183Y-109804930D01*
X131219331Y-109800055D01*
X131174745Y-109792998D01*
X131162816Y-109784982D01*
X131174468Y-109760136D01*
X131206537Y-109707642D01*
X131254694Y-109634200D01*
X131314612Y-109546509D01*
X131344019Y-109504524D01*
X131407524Y-109414511D01*
X131489611Y-109298123D01*
X131584477Y-109163589D01*
X131686320Y-109019139D01*
X131789337Y-108873003D01*
X131860881Y-108771500D01*
X131954279Y-108639013D01*
X132044407Y-108511222D01*
X132126970Y-108394212D01*
X132197675Y-108294065D01*
X132252229Y-108216865D01*
X132284387Y-108171444D01*
X132326051Y-108107396D01*
X132353367Y-108054864D01*
X132360883Y-108024470D01*
X132360448Y-108023277D01*
X132343154Y-107995505D01*
X132307748Y-107943484D01*
X132261049Y-107877179D01*
X132247864Y-107858780D01*
X132184851Y-107770757D01*
X132104302Y-107657616D01*
X132012977Y-107528908D01*
X131917638Y-107394182D01*
X131825045Y-107262988D01*
X131741959Y-107144876D01*
X131695222Y-107078167D01*
X131638495Y-106997610D01*
X131568659Y-106899305D01*
X131497466Y-106799768D01*
X131469337Y-106760667D01*
X131364572Y-106614583D01*
X131278042Y-106492308D01*
X131211337Y-106396150D01*
X131166049Y-106328411D01*
X131143766Y-106291399D01*
X131141650Y-106285631D01*
X131161758Y-106282039D01*
X131217851Y-106278888D01*
X131303581Y-106276355D01*
X131412600Y-106274618D01*
X131538561Y-106273854D01*
X131563471Y-106273834D01*
X131713632Y-106274390D01*
X131826725Y-106276295D01*
X131908003Y-106279904D01*
X131962721Y-106285574D01*
X131996132Y-106293658D01*
X132013263Y-106304264D01*
X132036916Y-106334033D01*
X132077932Y-106389516D01*
X132129634Y-106461583D01*
X132164162Y-106510639D01*
X132224349Y-106596448D01*
X132299890Y-106703651D01*
X132381557Y-106819179D01*
X132460122Y-106929959D01*
X132467674Y-106940584D01*
X132539329Y-107041841D01*
X132609089Y-107141253D01*
X132669939Y-107228767D01*
X132714860Y-107294327D01*
X132722512Y-107305709D01*
X132771141Y-107374252D01*
X132804201Y-107408707D01*
X132826158Y-107412276D01*
X132840651Y-107390375D01*
X132855766Y-107365243D01*
X132891425Y-107311813D01*
X132943455Y-107236159D01*
X133007686Y-107144354D01*
X133070458Y-107055775D01*
X133151046Y-106942441D01*
X133231940Y-106828222D01*
X133306285Y-106722831D01*
X133367224Y-106635977D01*
X133395900Y-106594785D01*
X133451131Y-106515541D01*
X133521614Y-106415166D01*
X133597981Y-106306968D01*
X133665775Y-106211406D01*
X133726236Y-106125571D01*
X133776652Y-106052340D01*
X133812477Y-105998446D01*
X133829164Y-105970617D01*
X133829816Y-105968605D01*
X133808898Y-105967695D01*
X133747136Y-105966802D01*
X133646021Y-105965927D01*
X133507042Y-105965072D01*
X133331690Y-105964241D01*
X133121454Y-105963435D01*
X132877824Y-105962657D01*
X132602291Y-105961909D01*
X132296343Y-105961194D01*
X131961472Y-105960515D01*
X131599166Y-105959874D01*
X131210917Y-105959272D01*
X130798214Y-105958714D01*
X130362546Y-105958200D01*
X129905404Y-105957734D01*
X129428278Y-105957319D01*
X128932657Y-105956955D01*
X128420032Y-105956647D01*
X127891892Y-105956396D01*
X127349728Y-105956205D01*
X126795029Y-105956076D01*
X126229285Y-105956012D01*
X126172775Y-105956009D01*
X125605762Y-105955943D01*
X125049529Y-105955794D01*
X124505572Y-105955565D01*
X123975386Y-105955260D01*
X123460468Y-105954882D01*
X122962313Y-105954434D01*
X122482418Y-105953919D01*
X122022278Y-105953339D01*
X121583391Y-105952699D01*
X121167251Y-105952001D01*
X120775355Y-105951248D01*
X120409199Y-105950444D01*
X120070280Y-105949591D01*
X119760092Y-105948692D01*
X119480132Y-105947752D01*
X119231897Y-105946772D01*
X119016882Y-105945755D01*
X118836583Y-105944706D01*
X118692497Y-105943627D01*
X118586119Y-105942521D01*
X118518946Y-105941391D01*
X118492473Y-105940240D01*
X118492136Y-105940134D01*
X118471298Y-105915485D01*
X118438676Y-105866302D01*
X118401562Y-105804994D01*
X118367248Y-105743970D01*
X118343029Y-105695639D01*
X118335816Y-105674164D01*
X118356744Y-105673156D01*
X118418574Y-105672166D01*
X118519872Y-105671198D01*
X118659208Y-105670253D01*
X118835150Y-105669334D01*
X119046264Y-105668443D01*
X119291120Y-105667583D01*
X119568286Y-105666756D01*
X119876329Y-105665965D01*
X120213817Y-105665211D01*
X120579318Y-105664499D01*
X120971401Y-105663829D01*
X121388634Y-105663205D01*
X121829584Y-105662629D01*
X122292819Y-105662103D01*
X122776907Y-105661629D01*
X123280417Y-105661211D01*
X123801917Y-105660851D01*
X124339974Y-105660551D01*
X124893156Y-105660313D01*
X125460032Y-105660141D01*
X126039169Y-105660035D01*
X126625001Y-105660000D01*
X134914185Y-105660000D01*
X134877011Y-105718209D01*
%TD*%
D11*
%TO.C,R5*%
X116810000Y-91000000D03*
X115790000Y-91000000D03*
%TD*%
D12*
%TO.C,U2*%
X120799999Y-91272399D03*
X120799999Y-90322399D03*
X120799999Y-89372399D03*
X118599999Y-89372399D03*
X118599999Y-91272399D03*
%TD*%
D13*
%TO.C,C1*%
X115820000Y-93000000D03*
X116780000Y-93000000D03*
%TD*%
D14*
%TO.C,R6*%
X158225000Y-107670000D03*
X158225000Y-106650000D03*
%TD*%
D15*
%TO.C,R7*%
X158225000Y-104190000D03*
X158225000Y-105210000D03*
%TD*%
D16*
%TO.C,J2*%
X137159999Y-119379999D03*
D17*
X137159999Y-121919999D03*
X134619999Y-119379999D03*
X134619999Y-121919999D03*
X132079999Y-119379999D03*
X132079999Y-121919999D03*
X129539999Y-119379999D03*
X129539999Y-121919999D03*
X126999999Y-119379999D03*
X126999999Y-121919999D03*
X124459999Y-119379999D03*
X124459999Y-121919999D03*
X121919999Y-119379999D03*
X121919999Y-121919999D03*
X119379999Y-119379999D03*
X119379999Y-121919999D03*
X116839999Y-119379999D03*
X116839999Y-121919999D03*
X114299999Y-119379999D03*
X114299999Y-121919999D03*
%TD*%
D18*
%TO.C,J1*%
X113100000Y-90982800D03*
D19*
X113099999Y-92982799D03*
X113099999Y-94982799D03*
X113099999Y-96982799D03*
%TD*%
D20*
%TO.C,J3*%
X178225000Y-121850000D03*
D19*
X178224999Y-119849999D03*
%TD*%
D21*
%TO.C,J5*%
X165324999Y-83449999D03*
D22*
X161825000Y-83450000D03*
X158325000Y-83450000D03*
X154825000Y-83450000D03*
X151325000Y-83450000D03*
%TD*%
D21*
%TO.C,J6*%
X147474999Y-83449999D03*
D22*
X143975000Y-83450000D03*
X140475000Y-83450000D03*
X136975000Y-83450000D03*
X133475000Y-83450000D03*
%TD*%
D21*
%TO.C,J7*%
X129524999Y-83449999D03*
D22*
X126025000Y-83450000D03*
X122525000Y-83450000D03*
X119025000Y-83450000D03*
X115525000Y-83450000D03*
%TD*%
D21*
%TO.C,J8*%
X183199999Y-83449999D03*
D22*
X179700000Y-83450000D03*
X176200000Y-83450000D03*
X172700000Y-83450000D03*
X169200000Y-83450000D03*
%TD*%
D23*
%TO.C,H1*%
X107378000Y-83200000D03*
%TD*%
%TO.C,H3*%
X107378000Y-120460000D03*
%TD*%
%TO.C,H4*%
X195517000Y-120460000D03*
%TD*%
%TO.C,H2*%
X195517000Y-83248000D03*
%TD*%
D24*
%TO.C,C9*%
X163310000Y-102600000D03*
X162350000Y-102600000D03*
%TD*%
D25*
%TO.C,U9*%
X168519999Y-113704999D03*
X169019999Y-113704999D03*
X169519999Y-113704999D03*
X170019999Y-113704999D03*
X170519999Y-113704999D03*
X170519999Y-112654999D03*
X170019999Y-112654999D03*
X169519999Y-112654999D03*
X169019999Y-112654999D03*
X168519999Y-112654999D03*
%TD*%
D16*
%TO.C,J20*%
X187399999Y-84001951D03*
D17*
X189939999Y-84001951D03*
%TD*%
D15*
%TO.C,R15*%
X173000000Y-95790000D03*
X173000000Y-96810000D03*
%TD*%
D26*
%TO.C,J9*%
X111212500Y-105150000D03*
X111212500Y-110150000D03*
D27*
X114838390Y-104149999D03*
X114838390Y-106649999D03*
X114838390Y-108649999D03*
X114838390Y-111149999D03*
D28*
X106702499Y-101249999D03*
X106702499Y-114049999D03*
%TD*%
D29*
%TO.C,J21*%
X145925000Y-120550000D03*
D30*
X147924999Y-120549999D03*
X149924999Y-120549999D03*
X151924999Y-120549999D03*
%TD*%
D20*
%TO.C,J11*%
X172575000Y-121875000D03*
D19*
X172574999Y-119874999D03*
X172574999Y-117874999D03*
%TD*%
D16*
%TO.C,J14*%
X189999999Y-87699999D03*
D17*
X187459999Y-87699999D03*
%TD*%
D14*
%TO.C,R4*%
X156300000Y-118710000D03*
X156300000Y-117690000D03*
%TD*%
D13*
%TO.C,C8*%
X173720000Y-100700000D03*
X174680000Y-100700000D03*
%TD*%
D25*
%TO.C,U11*%
X163319999Y-112774999D03*
X163819999Y-112774999D03*
X164319999Y-112774999D03*
X164819999Y-112774999D03*
X165319999Y-112774999D03*
X165319999Y-111724999D03*
X164819999Y-111724999D03*
X164319999Y-111724999D03*
X163819999Y-111724999D03*
X163319999Y-111724999D03*
%TD*%
D31*
%TO.C,C11*%
X167460000Y-106180000D03*
X167460000Y-107140000D03*
%TD*%
D11*
%TO.C,R18*%
X176710000Y-102110000D03*
X175690000Y-102110000D03*
%TD*%
D32*
%TO.C,R3*%
X163290000Y-115450000D03*
X164310000Y-115450000D03*
%TD*%
D33*
%TO.C,J16*%
X185399999Y-104249999D03*
D34*
X185400000Y-106750000D03*
X187400000Y-106750000D03*
X187400000Y-104250000D03*
D35*
X190260000Y-99500000D03*
X190260000Y-111500000D03*
%TD*%
D25*
%TO.C,U7*%
X160859999Y-89864999D03*
X160359999Y-89864999D03*
X159859999Y-89864999D03*
X159359999Y-89864999D03*
X158859999Y-89864999D03*
X158859999Y-90914999D03*
X159359999Y-90914999D03*
X159859999Y-90914999D03*
X160359999Y-90914999D03*
X160859999Y-90914999D03*
%TD*%
D36*
%TO.C,D2*%
X167025000Y-111250000D03*
X167995000Y-111250000D03*
%TD*%
D16*
%TO.C,J19*%
X105299999Y-89999999D03*
D17*
X105299999Y-92539999D03*
X105299999Y-95079999D03*
X105299999Y-97619999D03*
%TD*%
D37*
%TO.C,U3*%
X172899999Y-113149999D03*
X175199999Y-113149999D03*
D38*
X175199999Y-106849999D03*
D37*
X177499999Y-113149999D03*
%TD*%
D39*
%TO.C,FLASH1*%
X177003841Y-96202081D03*
X177901866Y-97100106D03*
X178799892Y-97998132D03*
X179697917Y-98896157D03*
X184796157Y-93797917D03*
X183898132Y-92899892D03*
X183000106Y-92001866D03*
X182102081Y-91103841D03*
%TD*%
D40*
%TO.C,Q2*%
X163737500Y-118650000D03*
X163737500Y-116750000D03*
X161862500Y-117700000D03*
%TD*%
D16*
%TO.C,J22*%
X158224999Y-122574999D03*
D17*
X160764999Y-122574999D03*
X163304999Y-122574999D03*
X165844999Y-122574999D03*
X168384999Y-122574999D03*
%TD*%
D41*
%TO.C,U4*%
X171220000Y-97992500D03*
X170820000Y-97992500D03*
X170420000Y-97992500D03*
X170020000Y-97992500D03*
X169620000Y-97992500D03*
X169220000Y-97992500D03*
X168820000Y-97992500D03*
X168420000Y-97992500D03*
X168020000Y-97992500D03*
X167620000Y-97992500D03*
X167220000Y-97992500D03*
X166820000Y-97992500D03*
X166420000Y-97992500D03*
X166020000Y-97992500D03*
D42*
X165182500Y-98830000D03*
X165182500Y-99230000D03*
X165182500Y-99630000D03*
X165182500Y-100030000D03*
X165182500Y-100430000D03*
X165182500Y-100830000D03*
X165182500Y-101230000D03*
X165182500Y-101630000D03*
X165182500Y-102030000D03*
X165182500Y-102430000D03*
X165182500Y-102830000D03*
X165182500Y-103230000D03*
X165182500Y-103630000D03*
X165182500Y-104030000D03*
D41*
X166020000Y-104867500D03*
X166420000Y-104867500D03*
X166820000Y-104867500D03*
X167220000Y-104867500D03*
X167620000Y-104867500D03*
X168020000Y-104867500D03*
X168420000Y-104867500D03*
X168820000Y-104867500D03*
X169220000Y-104867500D03*
X169620000Y-104867500D03*
X170020000Y-104867500D03*
X170420000Y-104867500D03*
X170820000Y-104867500D03*
X171220000Y-104867500D03*
D42*
X172057500Y-104030000D03*
X172057500Y-103630000D03*
X172057500Y-103230000D03*
X172057500Y-102830000D03*
X172057500Y-102430000D03*
X172057500Y-102030000D03*
X172057500Y-101630000D03*
X172057500Y-101230000D03*
X172057500Y-100830000D03*
X172057500Y-100430000D03*
X172057500Y-100030000D03*
X172057500Y-99630000D03*
X172057500Y-99230000D03*
X172057500Y-98830000D03*
D43*
X168620000Y-101430000D03*
%TD*%
D44*
%TO.C,R14*%
X174100000Y-96780000D03*
X174100000Y-95820000D03*
%TD*%
D32*
%TO.C,R21*%
X190900000Y-93000000D03*
X191920000Y-93000000D03*
%TD*%
D11*
%TO.C,R2*%
X162360000Y-114400000D03*
X161340000Y-114400000D03*
%TD*%
D32*
%TO.C,R8*%
X161340000Y-115450000D03*
X162360000Y-115450000D03*
%TD*%
D45*
%TO.C,Y1*%
X160624999Y-101924999D03*
X160624999Y-99724999D03*
X159024999Y-99724999D03*
X159024999Y-101924999D03*
%TD*%
D13*
%TO.C,C7*%
X176120000Y-105000000D03*
X177080000Y-105000000D03*
%TD*%
D16*
%TO.C,J10*%
X155799999Y-100074999D03*
D17*
X155799999Y-102614999D03*
X155799999Y-105154999D03*
X155799999Y-107694999D03*
%TD*%
D25*
%TO.C,U1*%
X174459999Y-90409999D03*
X173959999Y-90409999D03*
X173459999Y-90409999D03*
X172959999Y-90409999D03*
X172459999Y-90409999D03*
X172459999Y-91459999D03*
X172959999Y-91459999D03*
X173459999Y-91459999D03*
X173959999Y-91459999D03*
X174459999Y-91459999D03*
%TD*%
D46*
%TO.C,D1*%
X179837500Y-114975000D03*
X181412500Y-114975000D03*
%TD*%
D32*
%TO.C,R10*%
X168020000Y-109860000D03*
X169040000Y-109860000D03*
%TD*%
D11*
%TO.C,R19*%
X176710000Y-103110000D03*
X175690000Y-103110000D03*
%TD*%
D44*
%TO.C,C15*%
X167400000Y-96780000D03*
X167400000Y-95820000D03*
%TD*%
D25*
%TO.C,U6*%
X143099999Y-89339999D03*
X142599999Y-89339999D03*
X142099999Y-89339999D03*
X141599999Y-89339999D03*
X141099999Y-89339999D03*
X141099999Y-90389999D03*
X141599999Y-90389999D03*
X142099999Y-90389999D03*
X142599999Y-90389999D03*
X143099999Y-90389999D03*
%TD*%
D32*
%TO.C,R22*%
X190990000Y-90400000D03*
X192010000Y-90400000D03*
%TD*%
D44*
%TO.C,C14*%
X171900000Y-96780000D03*
X171900000Y-95820000D03*
%TD*%
D40*
%TO.C,Q1*%
X159787500Y-118650000D03*
X159787500Y-116750000D03*
X157912500Y-117700000D03*
%TD*%
D25*
%TO.C,U5*%
X125299999Y-90274999D03*
X124799999Y-90274999D03*
X124299999Y-90274999D03*
X123799999Y-90274999D03*
X123299999Y-90274999D03*
X123299999Y-91324999D03*
X123799999Y-91324999D03*
X124299999Y-91324999D03*
X124799999Y-91324999D03*
X125299999Y-91324999D03*
%TD*%
D13*
%TO.C,C12*%
X173460000Y-104535062D03*
X174420000Y-104535062D03*
%TD*%
%TO.C,C10*%
X173520000Y-103500000D03*
X174480000Y-103500000D03*
%TD*%
D47*
%TO.C,D3*%
X187600000Y-93272500D03*
X187600000Y-94847500D03*
%TD*%
D48*
%TO.C,SW1*%
X182665657Y-118249999D03*
X190615657Y-118249999D03*
X190615657Y-120499999D03*
X182665657Y-122749999D03*
X190615657Y-122749999D03*
%TD*%
D49*
%TO.C,C5*%
X183260589Y-89939411D03*
X183939411Y-89260589D03*
%TD*%
D50*
%TO.C,J17*%
X139350000Y-97950000D03*
D51*
X141350000Y-99550000D03*
D52*
X141349999Y-102049999D03*
X141349999Y-104549999D03*
X141349999Y-107049999D03*
X141349999Y-109549999D03*
%TD*%
D13*
%TO.C,C6*%
X179845000Y-116300000D03*
X180805000Y-116300000D03*
%TD*%
D25*
%TO.C,U8*%
X157249999Y-113694999D03*
X157749999Y-113694999D03*
X158249999Y-113694999D03*
X158749999Y-113694999D03*
X159249999Y-113694999D03*
X159249999Y-112644999D03*
X158749999Y-112644999D03*
X158249999Y-112644999D03*
X157749999Y-112644999D03*
X157249999Y-112644999D03*
%TD*%
D24*
%TO.C,C4*%
X160305000Y-98175000D03*
X159345000Y-98175000D03*
%TD*%
D13*
%TO.C,C3*%
X159345000Y-103450000D03*
X160305000Y-103450000D03*
%TD*%
D11*
%TO.C,R16*%
X163430000Y-100650000D03*
X162410000Y-100650000D03*
%TD*%
D53*
%TO.C,J15*%
X194443337Y-94764000D03*
X194493337Y-88984000D03*
D54*
X193393336Y-95223999D03*
X193393336Y-94423999D03*
X193393336Y-93123999D03*
X193393336Y-92123999D03*
X193393336Y-91623999D03*
X193393336Y-93623999D03*
X193393336Y-89323999D03*
X193393336Y-88523999D03*
X193393336Y-88823999D03*
X193393336Y-89623999D03*
X193393336Y-90123999D03*
X193393336Y-91123999D03*
X193393336Y-92623999D03*
X193393336Y-90623999D03*
X193393336Y-94123999D03*
X193393336Y-94923999D03*
D55*
X193943336Y-96193999D03*
D56*
X198093336Y-96193999D03*
D55*
X193943336Y-87553999D03*
D56*
X198093336Y-87553999D03*
%TD*%
D57*
%TO.C,U10*%
X178074999Y-101399999D03*
X178074999Y-101899999D03*
X178074999Y-102399999D03*
X178074999Y-102899999D03*
X178074999Y-103399999D03*
X179124999Y-103399999D03*
X179124999Y-102899999D03*
X179124999Y-102399999D03*
X179124999Y-101899999D03*
X179124999Y-101399999D03*
%TD*%
D24*
%TO.C,C17*%
X163410000Y-101630000D03*
X162450000Y-101630000D03*
%TD*%
D11*
%TO.C,R9*%
X187600000Y-96190000D03*
X186580000Y-96190000D03*
%TD*%
D16*
%TO.C,J24*%
X181799999Y-112199999D03*
D17*
X181799999Y-109659999D03*
X181799999Y-107119999D03*
X181799999Y-104579999D03*
X181799999Y-102039999D03*
%TD*%
D13*
%TO.C,C13*%
X173420000Y-101700000D03*
X174380000Y-101700000D03*
%TD*%
D31*
%TO.C,C16*%
X171100000Y-106120000D03*
X171100000Y-107080000D03*
%TD*%
M02*
