%TF.GenerationSoftware,KiCad,Pcbnew,(6.0.4-0)*%
%TF.CreationDate,2023-01-11T12:36:20-07:00*%
%TF.ProjectId,ReflexFightingBoard,5265666c-6578-4466-9967-6874696e6742,rev?*%
%TF.SameCoordinates,Original*%
%TF.FileFunction,Soldermask,Bot*%
%TF.FilePolarity,Negative*%
%FSLAX46Y46*%
G04 Gerber Fmt 4.6, Leading zero omitted, Abs format (unit mm)*
G04 Created by KiCad (PCBNEW (6.0.4-0)) date 2023-01-11 12:36:20*
%MOMM*%
%LPD*%
G01*
G04 APERTURE LIST*
G04 Aperture macros list*
%AMRoundRect*
0 Rectangle with rounded corners*
0 $1 Rounding radius*
0 $2 $3 $4 $5 $6 $7 $8 $9 X,Y pos of 4 corners*
0 Add a 4 corners polygon primitive as box body*
4,1,4,$2,$3,$4,$5,$6,$7,$8,$9,$2,$3,0*
0 Add four circle primitives for the rounded corners*
1,1,$1+$1,$2,$3*
1,1,$1+$1,$4,$5*
1,1,$1+$1,$6,$7*
1,1,$1+$1,$8,$9*
0 Add four rect primitives between the rounded corners*
20,1,$1+$1,$2,$3,$4,$5,0*
20,1,$1+$1,$4,$5,$6,$7,0*
20,1,$1+$1,$6,$7,$8,$9,0*
20,1,$1+$1,$8,$9,$2,$3,0*%
G04 Aperture macros list end*
%ADD10R,1.700000X1.700000*%
%ADD11O,1.700000X1.700000*%
%ADD12RoundRect,0.249999X-0.625001X0.350001X-0.625001X-0.350001X0.625001X-0.350001X0.625001X0.350001X0*%
%ADD13O,1.750000X1.200000*%
%ADD14RoundRect,0.249999X-0.350001X-0.625001X0.350001X-0.625001X0.350001X0.625001X-0.350001X0.625001X0*%
%ADD15O,1.200000X1.750000*%
%ADD16R,2.300000X2.300000*%
%ADD17C,2.300000*%
%ADD18C,7.000000*%
%ADD19R,1.600000X1.600000*%
%ADD20C,1.600000*%
%ADD21C,4.000000*%
%ADD22C,1.200000*%
%ADD23RoundRect,0.250000X-0.725000X0.600000X-0.725000X-0.600000X0.725000X-0.600000X0.725000X0.600000X0*%
%ADD24O,1.950000X1.700000*%
%ADD25C,0.650000*%
%ADD26O,2.100000X1.000000*%
%ADD27O,1.800000X1.000000*%
G04 APERTURE END LIST*
D10*
%TO.C,J2*%
X137160000Y-119380000D03*
D11*
X137160000Y-121920000D03*
X134620000Y-119380000D03*
X134620000Y-121920000D03*
X132080000Y-119380000D03*
X132080000Y-121920000D03*
X129540000Y-119380000D03*
X129540000Y-121920000D03*
X127000000Y-119380000D03*
X127000000Y-121920000D03*
X124460000Y-119380000D03*
X124460000Y-121920000D03*
X121920000Y-119380000D03*
X121920000Y-121920000D03*
X119380000Y-119380000D03*
X119380000Y-121920000D03*
X116840000Y-119380000D03*
X116840000Y-121920000D03*
X114300000Y-119380000D03*
X114300000Y-121920000D03*
%TD*%
D12*
%TO.C,J1*%
X113100000Y-90982800D03*
D13*
X113100000Y-92982800D03*
X113100000Y-94982800D03*
X113100000Y-96982800D03*
%TD*%
D14*
%TO.C,J3*%
X144284835Y-120129571D03*
D15*
X146284835Y-120129571D03*
X148284835Y-120129571D03*
X150284835Y-120129571D03*
X152284835Y-120129571D03*
%TD*%
D14*
%TO.C,J4*%
X158248430Y-120142000D03*
D15*
X160248430Y-120142000D03*
X162248430Y-120142000D03*
X164248430Y-120142000D03*
%TD*%
D16*
%TO.C,J5*%
X129540000Y-82550000D03*
D17*
X126040000Y-82550000D03*
X122540000Y-82550000D03*
X119040000Y-82550000D03*
X115540000Y-82550000D03*
%TD*%
D16*
%TO.C,J6*%
X147320000Y-82550000D03*
D17*
X143820000Y-82550000D03*
X140320000Y-82550000D03*
X136820000Y-82550000D03*
X133320000Y-82550000D03*
%TD*%
D16*
%TO.C,J7*%
X165100000Y-82550000D03*
D17*
X161600000Y-82550000D03*
X158100000Y-82550000D03*
X154600000Y-82550000D03*
X151100000Y-82550000D03*
%TD*%
D16*
%TO.C,J8*%
X182880000Y-82550000D03*
D17*
X179380000Y-82550000D03*
X175880000Y-82550000D03*
X172380000Y-82550000D03*
X168880000Y-82550000D03*
%TD*%
D14*
%TO.C,J11*%
X170212000Y-120142000D03*
D15*
X172212000Y-120142000D03*
X174212000Y-120142000D03*
X176212000Y-120142000D03*
%TD*%
D12*
%TO.C,J12*%
X113000000Y-105000000D03*
D13*
X113000000Y-107000000D03*
X113000000Y-109000000D03*
X113000000Y-111000000D03*
%TD*%
D18*
%TO.C,H1*%
X107378000Y-83200000D03*
%TD*%
%TO.C,H3*%
X107378000Y-120460000D03*
%TD*%
%TO.C,H4*%
X195517000Y-120460000D03*
%TD*%
%TO.C,H2*%
X195517000Y-83248000D03*
%TD*%
D10*
%TO.C,J14*%
X188300000Y-81240000D03*
D11*
X188300000Y-83780000D03*
%TD*%
D19*
%TO.C,J16*%
X185400000Y-104250000D03*
D20*
X185400000Y-106750000D03*
X187400000Y-106750000D03*
X187400000Y-104250000D03*
D21*
X190260000Y-111500000D03*
X190260000Y-99500000D03*
%TD*%
D10*
%TO.C,J19*%
X105300000Y-90000000D03*
D11*
X105300000Y-92540000D03*
X105300000Y-95080000D03*
X105300000Y-97620000D03*
%TD*%
D10*
%TO.C,J10*%
X105300000Y-104100000D03*
D11*
X105300000Y-106640000D03*
X105300000Y-109180000D03*
X105300000Y-111720000D03*
%TD*%
D22*
%TO.C,J18*%
X148400000Y-97200000D03*
D23*
X150400000Y-98800000D03*
D24*
X150400000Y-101300000D03*
X150400000Y-103800000D03*
X150400000Y-106300000D03*
X150400000Y-108800000D03*
%TD*%
D22*
%TO.C,J17*%
X141500000Y-97200000D03*
D23*
X143500000Y-98800000D03*
D24*
X143500000Y-101300000D03*
X143500000Y-103800000D03*
X143500000Y-106300000D03*
X143500000Y-108800000D03*
%TD*%
D25*
%TO.C,J15*%
X194443337Y-94764000D03*
X194493337Y-88984000D03*
D26*
X193943337Y-87554000D03*
X193943337Y-96194000D03*
D27*
X198093337Y-96194000D03*
X198093337Y-87554000D03*
%TD*%
M02*
