M48
; DRILL file {KiCad (6.0.4-0)} date Wednesday, January 11, 2023 at 12:36:20 PM
; FORMAT={-:-/ absolute / inch / decimal}
; #@! TF.CreationDate,2023-01-11T12:36:20-07:00
; #@! TF.GenerationSoftware,Kicad,Pcbnew,(6.0.4-0)
; #@! TF.FileFunction,Plated,1,4,PTH
FMAT,2
INCH
; #@! TA.AperFunction,Plated,PTH,ViaDrill
T1C0.0118
; #@! TA.AperFunction,Plated,PTH,ComponentDrill
T2C0.0138
; #@! TA.AperFunction,Plated,PTH,ViaDrill
T3C0.0157
; #@! TA.AperFunction,Plated,PTH,ComponentDrill
T4C0.0236
; #@! TA.AperFunction,Plated,PTH,ComponentDrill
T5C0.0295
; #@! TA.AperFunction,Plated,PTH,ComponentDrill
T6C0.0374
; #@! TA.AperFunction,Plated,PTH,ComponentDrill
T7C0.0394
; #@! TA.AperFunction,Plated,PTH,ComponentDrill
T8C0.0472
; #@! TA.AperFunction,Plated,PTH,ComponentDrill
T9C0.0906
; #@! TA.AperFunction,Plated,PTH,ComponentDrill
T10C0.1378
%
G90
G05
T1
X4.0984Y-3.3937
X4.1012Y-4.6366
X4.1339Y-3.937
X4.1339Y-4.5276
X4.3307Y-3.1496
X4.3307Y-3.5433
X4.3307Y-3.7402
X4.3307Y-3.937
X4.3307Y-4.5276
X4.3559Y-4.637
X4.3906Y-3.3539
X4.4843Y-4.4528
X4.5276Y-3.1496
X4.5276Y-3.3465
X4.5276Y-3.5433
X4.5276Y-3.7402
X4.5276Y-3.937
X4.5276Y-4.1339
X4.5551Y-4.563
X4.6794Y-4.4685
X4.7244Y-3.1496
X4.7244Y-3.7402
X4.7244Y-3.937
X4.7244Y-4.1339
X4.7244Y-4.5276
X4.7598Y-3.3228
X4.7953Y-3.5197
X4.8929Y-3.4598
X4.9213Y-3.1496
X4.9213Y-3.937
X4.9213Y-4.5276
X4.924Y-4.0606
X4.9256Y-4.2374
X5.0276Y-3.4291
X5.0516Y-3.9465
X5.1181Y-3.1496
X5.1181Y-3.3465
X5.1224Y-3.5185
X5.1244Y-4.552
X5.1563Y-4.2264
X5.1571Y-4.0681
X5.2602Y-3.948
X5.2811Y-3.3457
X5.3067Y-4.1339
X5.315Y-3.1496
X5.315Y-3.5433
X5.3224Y-4.552
X5.3256Y-4.3315
X5.4Y-4.285
X5.464Y-4.3222
X5.4642Y-3.5421
X5.4685Y-3.374
X5.4807Y-3.9457
X5.4969Y-4.7453
X5.5118Y-3.1496
X5.5118Y-4.3307
X5.5118Y-4.5276
X5.5472Y-4.1339
X5.5945Y-3.4882
X5.6063Y-3.3425
X5.6142Y-4.7165
X5.7087Y-3.1496
X5.7087Y-3.937
X5.7087Y-4.1339
X5.7087Y-4.3307
X5.7087Y-4.5276
X5.8228Y-3.9764
X5.8583Y-4.1339
X5.8756Y-4.5626
X5.9055Y-3.1496
X5.9055Y-3.5433
X5.9213Y-4.3583
X5.9465Y-3.3469
X6.0224Y-3.5343
X6.0913Y-3.3421
X6.1024Y-3.1496
X6.1024Y-4.5276
X6.1228Y-4.3335
X6.1339Y-3.9409
X6.165Y-3.5114
X6.1693Y-3.8307
X6.2547Y-4.0043
X6.2831Y-3.3425
X6.2921Y-4.1701
X6.2992Y-3.1496
X6.2992Y-4.3307
X6.2992Y-4.5276
X6.3368Y-3.8297
X6.3661Y-3.4803
X6.3685Y-4.0197
X6.4213Y-4.4803
X6.4291Y-3.752
X6.4716Y-3.5268
X6.4921Y-4.2063
X6.4961Y-3.1496
X6.4961Y-3.3465
X6.4961Y-4.3307
X6.5353Y-3.9541
X6.5355Y-4.0645
X6.5398Y-4.0248
X6.5512Y-4.5118
X6.5643Y-3.7809
X6.5886Y-4.2823
X6.5945Y-4.5787
X6.5992Y-3.8949
X6.6425Y-4.3661
X6.688Y-4.5118
X6.6929Y-3.1496
X6.7106Y-3.5433
X6.7293Y-4.3858
X6.7293Y-4.5429
X6.7331Y-3.9949
X6.7358Y-3.3476
X6.7362Y-4.2441
X6.7406Y-4.3362
X6.7638Y-4.4567
X6.7677Y-3.7441
X6.8071Y-4.3937
X6.8071Y-4.5157
X6.8088Y-4.0787
X6.8228Y-3.7087
X6.8713Y-3.5449
X6.8857Y-3.7521
X6.8858Y-4.0945
X6.8898Y-3.3465
X6.8898Y-4.5276
X6.8937Y-3.9921
X6.9685Y-4.3346
X6.9849Y-4.0899
X6.9882Y-4.5984
X6.9987Y-4.0122
X7.0088Y-3.4843
X7.0282Y-4.1332
X7.0472Y-3.9291
X7.0472Y-4.0551
X7.054Y-4.2022
X7.0748Y-4.4331
X7.0866Y-3.3465
X7.0866Y-4.7244
X7.0918Y-4.105
X7.1047Y-4.6429
X7.1102Y-4.2431
X7.1194Y-4.1759
X7.1693Y-3.4724
X7.1772Y-4.3346
X7.2481Y-4.2356
X7.2598Y-3.4961
X7.2677Y-3.9764
X7.2835Y-3.1496
X7.2835Y-3.3465
X7.2835Y-4.5276
X7.2835Y-4.7244
X7.2878Y-3.25
X7.3363Y-4.2557
X7.3489Y-4.1579
X7.3701Y-3.5315
X7.3701Y-3.815
X7.4321Y-3.6614
X7.4343Y-3.7252
X7.4361Y-4.2431
X7.4495Y-3.5912
X7.4503Y-4.1782
X7.4774Y-3.7706
X7.4803Y-3.1496
X7.4803Y-3.3465
X7.4803Y-4.5276
X7.497Y-3.685
X7.498Y-3.526
X7.5024Y-3.5646
X7.5037Y-3.6295
X7.5078Y-4.2224
X7.5079Y-3.4291
X7.516Y-4.1223
X7.5227Y-3.8159
X7.5253Y-3.7267
X7.5551Y-3.6295
X7.5591Y-3.5646
X7.5629Y-4.1672
X7.566Y-4.0437
X7.5666Y-3.768
X7.6084Y-4.1218
X7.6309Y-3.874
X7.6309Y-4.0433
X7.6317Y-3.9733
X7.6772Y-4.5276
X7.6787Y-3.5882
X7.6787Y-3.6718
X7.7264Y-3.5449
X7.7283Y-4.0472
X7.7323Y-4.2717
T2
X6.5884Y-3.9431
X6.5884Y-3.9933
X6.5884Y-4.0435
X6.6386Y-3.9431
X6.6386Y-3.9933
X6.6386Y-4.0435
X6.6888Y-3.9431
X6.6888Y-3.9933
X6.6888Y-4.0435
T3
X6.1339Y-3.9803
X7.0992Y-4.8177
X7.5146Y-4.8169
T5
X4.4488Y-4.1339
X4.4488Y-4.2126
X4.4488Y-4.2913
X4.4488Y-4.3701
X4.4528Y-3.582
X4.4528Y-3.6607
X4.4528Y-3.7395
X4.4528Y-3.8182
X5.6805Y-4.7295
X5.7592Y-4.7295
X5.838Y-4.7295
X5.9167Y-4.7295
X5.9955Y-4.7295
X6.2303Y-4.73
X6.309Y-4.73
X6.3877Y-4.73
X6.4665Y-4.73
X6.7013Y-4.73
X6.78Y-4.73
X6.8587Y-4.73
X6.9375Y-4.73
T6
X5.6496Y-3.8898
X5.6496Y-3.9882
X5.6496Y-4.0866
X5.6496Y-4.185
X5.6496Y-4.2835
X5.9213Y-3.8898
X5.9213Y-3.9882
X5.9213Y-4.0866
X5.9213Y-4.185
X5.9213Y-4.2835
X7.2992Y-4.1043
X7.2992Y-4.2028
X7.378Y-4.1043
X7.378Y-4.2028
T7
X4.1457Y-3.5433
X4.1457Y-3.6433
X4.1457Y-3.7433
X4.1457Y-3.8433
X4.1457Y-4.0984
X4.1457Y-4.1984
X4.1457Y-4.2984
X4.1457Y-4.3984
X4.5Y-4.7
X4.5Y-4.8
X4.6Y-4.7
X4.6Y-4.8
X4.7Y-4.7
X4.7Y-4.8
X4.8Y-4.7
X4.8Y-4.8
X4.9Y-4.7
X4.9Y-4.8
X5.0Y-4.7
X5.0Y-4.8
X5.1Y-4.7
X5.1Y-4.8
X5.2Y-4.7
X5.2Y-4.8
X5.3Y-4.7
X5.3Y-4.8
X5.4Y-4.7
X5.4Y-4.8
X7.4134Y-3.1984
X7.4134Y-3.2984
T8
X4.5488Y-3.25
X4.6866Y-3.25
X4.8244Y-3.25
X4.9622Y-3.25
X5.1Y-3.25
X5.2488Y-3.25
X5.3866Y-3.25
X5.5244Y-3.25
X5.6622Y-3.25
X5.8Y-3.25
X5.9488Y-3.25
X6.0866Y-3.25
X6.2244Y-3.25
X6.3622Y-3.25
X6.5Y-3.25
X6.6488Y-3.25
X6.7866Y-3.25
X6.9244Y-3.25
X7.0622Y-3.25
X7.2Y-3.25
T9
X7.4906Y-3.9173
X7.4906Y-4.3898
T10
X4.2275Y-3.2756
X4.2275Y-4.7425
X7.6975Y-3.2775
X7.6975Y-4.7425
T4
G00X7.6139Y-3.447
M15
G01X7.6572Y-3.447
M16
G05
G00X7.6139Y-3.7872
M15
G01X7.6572Y-3.7872
M16
G05
G00X7.7832Y-3.447
M15
G01X7.8147Y-3.447
M16
G05
G00X7.7832Y-3.7872
M15
G01X7.8147Y-3.7872
M16
G05
T0
M30
